<svg width="124" height="24" viewBox="0 0 124 24" fill="none" xmlns="http://www.w3.org/2000/svg">
<g clip-path="url(#clip0_11954_7099)">
<path d="M26.3644 11.5827L24.1335 4.95373H24.0839L21.7788 11.5827H26.3644ZM26.1413 0.500416L32.7596 18.5658H28.7192L27.3807 14.5429H20.7625L19.3743 18.5658H15.458L22.1505 0.500416H26.1413Z" fill="#1E1942"/>
<path d="M37.2433 5.48497V7.30669H37.318C37.7642 6.5476 38.3422 5.99536 39.0528 5.64943C39.7633 5.30392 40.4908 5.13081 41.2344 5.13081C42.1763 5.13081 42.9485 5.2615 43.552 5.52288C44.1548 5.78465 44.6302 6.14703 44.9769 6.61089C45.3243 7.075 45.5677 7.63987 45.7081 8.30618C45.8486 8.97264 45.9192 9.71032 45.9192 10.5201V18.5658H42.3994V11.1779C42.3994 10.0987 42.2338 9.29288 41.9036 8.76165C41.5728 8.23013 40.9865 7.9645 40.1437 7.9645C39.185 7.9645 38.4909 8.25551 38.0613 8.83741C37.6316 9.41942 37.4168 10.3769 37.4168 11.7091V18.5658H33.8973V5.48497H37.2433Z" fill="#1E1942"/>
<path d="M55.5535 15.1756C55.9336 14.9731 56.2476 14.7036 56.4954 14.3659C56.7433 14.0287 56.9292 13.6448 57.0532 13.2147C57.1771 12.7845 57.2391 12.3334 57.2391 11.8609C57.2391 11.3213 57.1895 10.811 57.0903 10.3302C56.9912 9.84953 56.8256 9.42369 56.5946 9.05266C56.3629 8.68161 56.0572 8.38635 55.6775 8.167C55.297 7.94789 54.8178 7.83807 54.2398 7.83807C53.7441 7.83807 53.3182 7.9391 52.9633 8.14159C52.6076 8.34407 52.3102 8.61846 52.0709 8.96386C51.8313 9.30976 51.6578 9.70633 51.5504 10.1531C51.4426 10.6004 51.3893 11.0685 51.3893 11.5574C51.3893 12.0298 51.4347 12.4979 51.5256 12.9616C51.6161 13.4257 51.7735 13.8431 51.9966 14.2142C52.2196 14.5853 52.5126 14.8889 52.8765 15.125C53.2397 15.3613 53.6945 15.4791 54.2398 15.4791C54.7355 15.4791 55.1731 15.3781 55.5535 15.1756ZM60.3746 19.5274C60.2342 20.2021 59.9323 20.8305 59.4699 21.4125C59.0069 21.9941 58.3376 22.4876 57.4621 22.8926C56.586 23.2975 55.4127 23.5 53.9424 23.5C53.3141 23.5 52.6737 23.4197 52.0213 23.2595C51.3683 23.0992 50.7734 22.85 50.2367 22.513C49.6996 22.1753 49.2534 21.7416 48.8981 21.2099C48.5425 20.6788 48.3404 20.0419 48.2909 19.2995H51.7859C51.9508 19.9742 52.273 20.4423 52.7526 20.7038C53.2314 20.9653 53.785 21.0964 54.4133 21.0964C55.4048 21.0964 56.1274 20.7923 56.5822 20.1853C57.0366 19.5782 57.2552 18.8101 57.2391 17.8829V16.1623H57.1895C56.8091 16.8542 56.2682 17.364 55.5659 17.6932C54.8633 18.0222 54.1241 18.1862 53.3475 18.1862C52.389 18.1862 51.5628 18.0137 50.8687 17.6678C50.1747 17.3221 49.6046 16.8498 49.1584 16.2509C48.7122 15.6524 48.3859 14.9522 48.1793 14.1508C47.9724 13.3498 47.8695 12.5021 47.8695 11.6081C47.8695 10.7647 47.9889 9.9507 48.2289 9.16631C48.4682 8.3821 48.8193 7.69051 49.2824 7.0916C49.7447 6.49297 50.3189 6.01638 51.0051 5.66209C51.6905 5.3079 52.4799 5.13082 53.3723 5.13082C54.215 5.13082 54.9542 5.29117 55.5907 5.61155C56.2266 5.93208 56.7595 6.47171 57.1895 7.2308H57.2391V5.48497H60.5853V17.7312C60.5853 18.2542 60.5148 18.8527 60.3746 19.5274Z" fill="#1E1942"/>
<path d="M70.8545 8.54642C70.4327 8.07433 69.7924 7.83807 68.9335 7.83807C68.3713 7.83807 67.9044 7.93513 67.5326 8.12897C67.1608 8.3232 66.8637 8.56343 66.6406 8.85018C66.4172 9.13721 66.2602 9.44073 66.1693 9.76097C66.0784 10.0816 66.0247 10.3681 66.0086 10.6213H71.7341C71.5692 9.71033 71.2755 9.01903 70.8545 8.54642ZM66.8758 15.4285C67.4046 15.9516 68.1647 16.213 69.1565 16.213C69.8668 16.213 70.4782 16.0318 70.9908 15.6688C71.5027 15.3064 71.8167 14.9225 71.9327 14.5177H75.0311C74.535 16.0864 73.7749 17.2082 72.7507 17.8829C71.7258 18.5576 70.4864 18.8948 69.0326 18.8948C68.0242 18.8948 67.1154 18.7305 66.3057 18.4018C65.4959 18.0727 64.8102 17.6046 64.2487 16.9975C63.6865 16.3901 63.2527 15.6649 62.9473 14.8213C62.6413 13.9781 62.4888 13.0503 62.4888 12.038C62.4888 11.06 62.6454 10.1492 62.9597 9.30551C63.2734 8.46226 63.7195 7.73293 64.2982 7.11687C64.8763 6.50147 65.5662 6.01638 66.368 5.66209C67.1691 5.3079 68.0573 5.13082 69.0326 5.13082C70.1232 5.13082 71.0731 5.34582 71.8831 5.77602C72.6925 6.20608 73.3576 6.78398 73.8782 7.50919C74.399 8.23468 74.7746 9.06117 75.0063 9.98858C75.2373 10.9165 75.32 11.8864 75.2539 12.8984H66.0086C66.0581 14.0623 66.347 14.906 66.8758 15.4285Z" fill="#1E1942"/>
<path d="M80.6471 0.500416V18.5658H77.1277V0.500416H80.6471Z" fill="#1E1942"/>
<path d="M87.3449 0.500416V15.2261H95.9706V18.5658H83.4533V0.500416H87.3449Z" fill="#1E1942"/>
<path d="M100.948 5.48497V18.5658H97.4275V5.48497H100.948ZM97.4275 3.46093V0.500416H100.948V3.46093H97.4275Z" fill="#1E1942"/>
<path d="M106.438 15.3147C106.594 15.5931 106.797 15.8208 107.045 15.9979C107.293 16.175 107.578 16.3058 107.9 16.3901C108.222 16.4746 108.557 16.5165 108.904 16.5165C109.152 16.5165 109.412 16.4874 109.685 16.428C109.958 16.3691 110.205 16.2761 110.428 16.1497C110.651 16.0233 110.838 15.8547 110.986 15.6437C111.135 15.433 111.209 15.1674 111.209 14.8466C111.209 14.307 110.858 13.9022 110.156 13.6321C109.453 13.3625 108.474 13.0925 107.218 12.8224C106.706 12.7048 106.206 12.5656 105.719 12.4049C105.231 12.2449 104.798 12.0342 104.418 11.7724C104.037 11.5112 103.732 11.1822 103.501 10.7857C103.269 10.3897 103.154 9.90456 103.154 9.33091C103.154 8.48752 103.314 7.79608 103.637 7.25606C103.959 6.71643 104.384 6.29077 104.913 5.97847C105.442 5.66648 106.037 5.44695 106.698 5.32055C107.359 5.19411 108.037 5.13082 108.73 5.13082C109.424 5.13082 110.098 5.19836 110.751 5.33317C111.403 5.46825 111.985 5.69611 112.498 6.01638C113.01 6.33691 113.436 6.76272 113.775 7.29395C114.113 7.82532 114.316 8.49589 114.382 9.30551H111.036C110.986 8.61407 110.73 8.14584 110.268 7.90122C109.805 7.65689 109.259 7.53445 108.632 7.53445C108.433 7.53445 108.218 7.54707 107.987 7.57234C107.755 7.59774 107.544 7.65263 107.355 7.7369C107.165 7.82149 107.004 7.94364 106.871 8.10371C106.739 8.26416 106.673 8.47926 106.673 8.74887C106.673 9.06953 106.789 9.33091 107.02 9.53326C107.251 9.73571 107.553 9.90003 107.925 10.0267C108.297 10.1531 108.722 10.267 109.201 10.3681C109.681 10.4694 110.168 10.5794 110.664 10.6972C111.176 10.8154 111.676 10.9588 112.164 11.1272C112.651 11.2961 113.084 11.5196 113.465 11.7978C113.845 12.0762 114.151 12.4221 114.382 12.8352C114.613 13.2486 114.729 13.7586 114.729 14.3659C114.729 15.2262 114.56 15.9472 114.221 16.5293C113.882 17.1111 113.44 17.5793 112.895 17.9337C112.349 18.2878 111.726 18.537 111.024 18.6797C110.321 18.8232 109.606 18.8948 108.879 18.8948C108.136 18.8948 107.409 18.8191 106.698 18.6674C105.987 18.5154 105.355 18.2624 104.802 17.9083C104.248 17.5541 103.794 17.086 103.439 16.5039C103.083 15.922 102.889 15.1925 102.856 14.3152H106.202C106.202 14.7036 106.28 15.0364 106.438 15.3147Z" fill="#1E1942"/>
<path d="M123.65 5.48499V7.88876H121.072V14.3659C121.072 14.9731 121.171 15.3781 121.37 15.5803C121.568 15.7828 121.965 15.8841 122.559 15.8841C122.758 15.8841 122.947 15.8756 123.129 15.8587C123.311 15.8419 123.484 15.8168 123.65 15.7828V18.5658C123.353 18.6166 123.022 18.6502 122.659 18.6674C122.295 18.6839 121.94 18.6925 121.593 18.6925C121.048 18.6925 120.531 18.6543 120.044 18.5789C119.556 18.5027 119.127 18.3551 118.755 18.1359C118.383 17.9168 118.089 17.6046 117.875 17.1997C117.659 16.7949 117.552 16.2636 117.552 15.6057V7.88876H115.42V5.48499H117.552V1.56332H121.072V5.48499H123.65Z" fill="#1E1942"/>
<path d="M10.0663 8.26243C10.6068 6.76341 11.0285 5.52594 11.3311 4.54993C11.6336 3.57395 11.785 2.97475 11.785 2.75238C11.785 2.51352 11.7345 2.32819 11.6336 2.19641C11.5326 2.06491 11.3935 1.99874 11.2161 1.99874C10.9902 1.99874 10.7602 2.19026 10.5262 2.57323C10.2921 2.95623 10.034 3.57215 9.7516 4.42022L8.5413 7.99061L10.0663 8.26243ZM8.45657 11.5857C8.10962 11.5693 7.78067 11.5322 7.47014 11.4746C7.15951 11.417 6.86299 11.3345 6.58059 11.2275C6.70955 11.4913 6.82454 11.7546 6.92551 12.0182C7.02638 12.282 7.10894 12.5414 7.17362 12.7965C7.36727 12.5494 7.57101 12.3252 7.78484 12.1232C7.99852 11.9214 8.22243 11.7422 8.45657 11.5857ZM7.0889 7.84235L5.78178 3.98781C5.44289 3.00768 5.18066 2.36761 4.99506 2.0667C4.80933 1.76607 4.60776 1.61577 4.38991 1.61577C4.22046 1.61577 4.08316 1.68194 3.9784 1.81344C3.8735 1.94522 3.82105 2.12229 3.82105 2.34467C3.82105 2.72353 3.96212 3.38243 4.24466 4.32137C4.52707 5.26031 4.95069 6.49163 5.51549 8.01532C5.5639 7.92472 5.63237 7.86091 5.72126 7.82383C5.81001 7.78676 5.93102 7.76824 6.08436 7.76824C6.13276 7.76824 6.22957 7.77249 6.37482 7.78061C6.52007 7.78883 6.75795 7.80971 7.0889 7.84235ZM5.90279 13.8095C6.03998 13.8095 6.16488 13.746 6.27801 13.618C6.39097 13.4904 6.44742 13.3524 6.44742 13.2042C6.44742 13.0479 6.3365 12.6835 6.11459 12.1108C5.89257 11.5384 5.61636 10.9763 5.28552 10.4244C5.04347 10.0126 4.80544 9.70172 4.57144 9.49168C4.3373 9.28167 4.11556 9.17663 3.90578 9.17663C3.73633 9.17663 3.54873 9.28606 3.34298 9.50404C3.13722 9.72231 3.03435 9.92613 3.03435 10.1156C3.03435 10.3132 3.13521 10.6097 3.33693 11.0051C3.53851 11.4004 3.80895 11.8205 4.14785 12.2652C4.50286 12.7515 4.83773 13.13 5.15239 13.4019C5.46709 13.6736 5.7171 13.8095 5.90279 13.8095ZM2.27185 13.513C2.38481 13.6533 2.54215 13.8589 2.74387 14.1308C3.27641 14.8802 3.76847 15.255 4.22046 15.255C4.37362 15.255 4.51092 15.2056 4.63196 15.1067C4.75301 15.0079 4.81353 14.905 4.81353 14.7979C4.81353 14.6744 4.73283 14.4686 4.57144 14.1802C4.40995 13.8919 4.18817 13.5667 3.90578 13.2042C3.58302 12.7841 3.3146 12.4773 3.10091 12.2838C2.88709 12.0905 2.7155 11.9934 2.58653 11.9934C2.30399 11.9934 2.04377 12.1479 1.80588 12.4567C1.56785 12.7656 1.44883 13.13 1.44883 13.5501C1.44883 13.8881 1.53154 14.2649 1.69695 14.6805C1.86222 15.0964 2.1024 15.5144 2.41709 15.9345C2.89315 16.5852 3.48405 17.0854 4.1902 17.4354C4.89622 17.7859 5.67688 17.9605 6.53215 17.9605C8.10559 17.9605 9.42279 17.3613 10.4839 16.163C11.5448 14.9647 12.0754 13.4636 12.0754 11.6599C12.0754 11.1082 12.0349 10.6698 11.9544 10.3441C11.8737 10.0188 11.7405 9.78201 11.555 9.63375C11.224 9.35385 10.5807 9.10252 9.62453 8.88015C8.66837 8.65777 7.66985 8.54658 6.62899 8.54658C6.3385 8.54658 6.13276 8.59599 6.01172 8.69481C5.89071 8.79366 5.83019 8.96248 5.83019 9.20134C5.83019 9.7617 6.13679 10.1671 6.75004 10.4182C7.36311 10.6698 8.35556 10.7951 9.7274 10.7951H10.2236C10.3366 10.7951 10.4274 10.8383 10.4959 10.9248C10.5644 11.0113 10.6109 11.141 10.6351 11.314C10.4978 11.4457 10.2156 11.5963 9.78792 11.7649C9.36014 11.9337 9.03336 12.1005 8.80755 12.2652C8.32344 12.6279 7.93411 13.058 7.63959 13.5563C7.34497 14.0548 7.19783 14.5261 7.19783 14.9708C7.19783 15.2426 7.26024 15.57 7.38545 15.953C7.51049 16.336 7.57304 16.5728 7.57304 16.6634V16.7499L7.54884 16.8611C7.19366 16.8364 6.91343 16.6246 6.70766 16.2248C6.50189 15.8253 6.39902 15.2921 6.39902 14.6249V14.5137C6.33433 14.5714 6.27195 14.6126 6.21143 14.6373C6.15091 14.662 6.08436 14.6744 6.01172 14.6744C5.93911 14.6744 5.87054 14.6682 5.80599 14.6558C5.7413 14.6435 5.66866 14.6249 5.58813 14.6002C5.61233 14.6909 5.63048 14.7794 5.6426 14.8658C5.65468 14.9523 5.66074 15.0202 5.66074 15.0697C5.66074 15.3744 5.54372 15.6362 5.30976 15.8542C5.07562 16.0725 4.79725 16.1816 4.47463 16.1816C3.96629 16.1816 3.44989 15.9283 2.92542 15.4218C2.40082 14.9152 2.13871 14.4193 2.13871 13.9331C2.13871 13.8425 2.1488 13.7622 2.16897 13.6922C2.18901 13.6223 2.22343 13.5624 2.27185 13.513ZM10.9377 8.47244C11.6639 8.61272 12.1763 8.92544 12.4748 9.41138C12.7732 9.89759 12.9226 10.6636 12.9226 11.7093C12.9226 13.7848 12.3114 15.4836 11.089 16.8055C9.86659 18.1272 8.30327 18.7882 6.39902 18.7882C5.64862 18.7882 4.92043 18.6502 4.2144 18.3743C3.50825 18.0984 2.90121 17.7134 2.39288 17.2192C1.81193 16.6758 1.37622 16.1013 1.08574 15.4959C0.795262 14.8905 0.650024 14.2709 0.650024 13.6366C0.650024 12.9283 0.799297 12.3807 1.09784 11.9934C1.39625 11.6063 1.86827 11.3431 2.51391 11.2027C2.39288 10.9145 2.30399 10.6715 2.24764 10.4738C2.19116 10.2762 2.16292 10.1238 2.16292 10.0167C2.16292 9.64612 2.35455 9.26751 2.73782 8.88015C3.12095 8.49303 3.48216 8.29947 3.82105 8.29947C3.96629 8.29947 4.11945 8.32625 4.28098 8.37977C4.44234 8.43361 4.6278 8.52184 4.83773 8.6454C4.21629 6.84989 3.76457 5.46416 3.48216 4.48815C3.19962 3.51217 3.05855 2.83886 3.05855 2.46822C3.05855 1.95759 3.18752 1.5522 3.44585 1.25132C3.70405 0.950682 4.05505 0.800383 4.49883 0.800383C5.25715 0.800383 6.21749 2.53 7.37939 5.98921C7.58096 6.58222 7.7344 7.03934 7.8393 7.36056C7.92805 7.10551 8.05299 6.74282 8.21452 6.27336C9.37642 2.84708 10.3768 1.13394 11.2161 1.13394C11.6276 1.13394 11.9563 1.27602 12.2025 1.56017C12.4486 1.84433 12.5716 2.22554 12.5716 2.70293C12.5716 3.06563 12.4365 3.72836 12.1662 4.692C11.8957 5.65565 11.4864 6.91578 10.9377 8.47244Z" fill="#1E1942"/>
</g>
<defs>
<clipPath id="clip0_11954_7099">
<rect width="123" height="23" fill="white" transform="translate(0.650024 0.5)"/>
</clipPath>
</defs>
</svg>
