<svg width="88" height="32" viewBox="0 0 88 32" fill="none" xmlns="http://www.w3.org/2000/svg">
<g clip-path="url(#clip0_11954_7320)">
<path d="M0.422363 16.0291C0.422363 7.22912 7.50107 0.116394 16.259 0.116394C25.0024 0.116394 32.0811 7.22912 32.0956 16.0291C32.0956 24.8291 25.0169 31.9418 16.259 31.9418C7.50107 31.9564 0.422363 24.8437 0.422363 16.0291ZM10.266 25.1491H17.7645C21.0794 25.1491 23.0047 23.1564 23.0192 20.1891C23.0192 18.4728 22.0204 16.8582 20.6452 16.1164C20.2977 15.9564 20.2977 15.4618 20.6162 15.2873C21.7743 14.6182 22.6428 13.2946 22.6428 11.5637C22.6428 8.82912 20.732 6.92367 17.5763 6.92367H10.266C9.84616 6.92367 9.49874 7.27276 9.49874 7.69457V13.5855C9.49874 13.9055 9.68692 14.1818 9.97644 14.2982L13.0598 15.52C13.5375 15.7091 13.5375 16.4073 13.0598 16.5818L9.97644 17.7891C9.67245 17.9055 9.49874 18.1818 9.49874 18.5018V24.3928C9.49874 24.8 9.84616 25.1491 10.266 25.1491Z" fill="#1E1942"/>
<path d="M38.9136 10.0945C38.9136 9.77451 39.1597 9.5127 39.4927 9.5127H47.1504C50.0166 9.5127 51.3919 11.4036 51.3919 13.2218C51.3919 14.4872 50.8418 15.4763 50.0456 16.0581C49.7271 16.2909 49.7271 16.7709 50.0456 17.0036C51.0155 17.6291 51.6669 18.7781 51.6669 20.1309C51.6669 22.2545 50.2483 24.0872 47.3965 24.0872H39.4782C39.1597 24.0872 38.8992 23.84 38.8992 23.5054V10.0945H38.9136ZM46.2819 15.1563C47.0346 15.1563 47.5702 14.6036 47.5702 13.8909C47.5702 13.1782 47.0491 12.6545 46.2819 12.6545H43.1985C42.88 12.6545 42.6195 12.9018 42.6195 13.2363V14.6182C42.6195 14.9382 42.8656 15.2 43.1985 15.2H46.2674V15.1563H46.2819ZM63.6385 19.0109C63.6385 15.4472 61.3947 13.1491 58.2679 13.1491C54.9819 13.1491 52.6947 15.6072 52.6947 18.6763C52.6947 22.1091 55.199 24.2182 58.4271 24.2182C59.8313 24.2182 61.3223 23.8691 62.3646 23.1563C62.6396 22.9963 62.712 22.6327 62.5238 22.3709L61.7276 21.1927C61.5684 20.9454 61.221 20.8727 60.9749 21.0327C60.3814 21.3818 59.5707 21.6145 58.8469 21.6145C57.7757 21.6145 57.0085 21.2218 56.5742 20.6545C56.2992 20.2909 56.5742 19.7527 57.0375 19.7527H63.0739C63.3924 19.7527 63.6529 19.5054 63.6529 19.1709V19.0109H63.6385ZM59.6721 17.5563H56.9216C56.4874 17.5563 56.2123 17.0472 56.4439 16.6981C56.7624 16.1891 57.3414 15.7527 58.2824 15.7527C59.2667 15.7527 59.8458 16.1891 60.1642 16.6981C60.3814 17.0763 60.1063 17.5563 59.6721 17.5563ZM64.1885 13.6145H66.4757C66.7073 13.6145 66.939 13.7745 66.9969 13.9782L68.7195 18.7927C68.9077 19.3018 69.588 19.3018 69.7762 18.7927L71.4989 13.9782C71.5712 13.7454 71.8029 13.6145 72.02 13.6145H74.3361C74.727 13.6145 75.002 14.0072 74.8573 14.4L71.1659 23.8109C71.0791 24.0145 70.8619 24.1745 70.6448 24.1745H67.8509C67.6193 24.1745 67.4167 24.0436 67.3298 23.8109L63.6819 14.4C63.5226 14.0363 63.7977 13.6145 64.1885 13.6145ZM78.2446 25.4109C78.9974 25.4109 79.4895 25.2509 79.6633 24.8145L79.7356 24.6254C79.8514 24.3781 79.8514 24.1018 79.7356 23.84L76.0153 14.3127C75.8706 13.9491 76.1601 13.5563 76.5365 13.5563H78.8237C79.0553 13.5563 79.2869 13.7163 79.3448 13.92L81.0674 18.7345C81.2556 19.2436 81.936 19.2436 82.1242 18.7345L83.8468 13.92C83.9336 13.6872 84.1508 13.5563 84.3679 13.5563H86.6841C87.0749 13.5563 87.3499 13.9491 87.2052 14.3418L82.7756 25.6145C81.9215 27.84 80.3436 28.3491 78.3459 28.3782C78.1578 28.3782 77.8248 28.3491 77.4774 28.3054C77.1589 28.2618 76.9563 27.9563 76.9997 27.6654L77.3037 25.8472C77.3471 25.5418 77.6511 25.3382 77.9406 25.3818C78.0709 25.4109 78.1578 25.4109 78.2446 25.4109Z" fill="#1E1942"/>
<path d="M47.8598 19.6218C47.8598 20.4073 47.3097 20.96 46.4122 20.96V20.9891H43.1985C42.8801 20.9891 42.6195 20.7418 42.6195 20.4073V18.8218C42.6195 18.5018 42.8656 18.24 43.1985 18.24H46.4122C47.3387 18.24 47.8598 18.8945 47.8598 19.6218Z" fill="white"/>
</g>
<defs>
<clipPath id="clip0_11954_7320">
<rect width="87" height="32" fill="white" transform="translate(0.349976)"/>
</clipPath>
</defs>
</svg>
