<svg width="141" height="28" viewBox="0 0 141 28" fill="none" xmlns="http://www.w3.org/2000/svg">
<g clip-path="url(#clip0_11954_7116)">
<path d="M2.36603 24.0998V25.0894H5.08792V25.9043H2.36603V27.8836H1.47845V23.2848H6.33053V24.0998H2.36603ZM14.3779 25.5551C14.3779 26.3118 14.0228 26.9522 13.3719 27.4179C13.1353 27.5925 12.7802 27.7671 12.4252 27.8836C12.0702 28 11.656 28.0582 11.2418 28.0582C10.8276 28.0582 10.4134 28 10.0583 27.8836C9.70331 27.7671 9.40745 27.6507 9.11159 27.4179C8.4607 26.9522 8.10567 26.3118 8.10567 25.5551C8.10567 24.7983 8.4607 24.2162 9.11159 23.7505C9.40745 23.5759 9.70331 23.4012 10.0583 23.2848C10.4134 23.1684 10.8276 23.1102 11.1826 23.1102C11.5968 23.1102 11.9518 23.1684 12.3069 23.2848C12.6619 23.4012 12.9577 23.5177 13.2536 23.7505C14.0228 24.2162 14.3779 24.7983 14.3779 25.5551ZM13.4311 25.5551C13.4311 25.3222 13.3719 25.0894 13.2536 24.9147C13.1353 24.7401 13.0169 24.5655 12.8394 24.3908C12.6619 24.2744 12.4252 24.158 12.1885 24.0416C11.9518 23.9833 11.656 23.9251 11.3009 23.9251C11.0051 23.9251 10.7092 23.9833 10.4134 24.0416C10.1767 24.0998 9.93999 24.2162 9.76248 24.3908C9.58496 24.5073 9.40745 24.6819 9.34828 24.9147C9.22993 25.0894 9.17076 25.3222 9.17076 25.5551C9.17076 25.7879 9.22993 26.0208 9.34828 26.1954C9.46662 26.37 9.58496 26.5447 9.76248 26.7193C9.93999 26.8357 10.1767 26.9522 10.4134 27.0686C10.6501 27.185 10.9459 27.185 11.3009 27.185C11.5968 27.185 11.8927 27.1268 12.1885 27.0686C12.4252 27.0104 12.6619 26.894 12.8394 26.7193C13.0169 26.6029 13.1944 26.4283 13.2536 26.1954C13.3719 26.0208 13.4311 25.7879 13.4311 25.5551ZM21.7743 27.8836L20.5909 26.1954H18.2832V27.8836H17.3956V23.2848H21.1826C21.4193 23.2848 21.656 23.343 21.8335 23.4012C22.011 23.4594 22.1885 23.5759 22.366 23.6923C22.4844 23.8087 22.6027 23.9833 22.7211 24.158C22.7802 24.3326 22.8394 24.5655 22.8394 24.7401C22.8394 25.0894 22.7211 25.4386 22.5435 25.6715C22.366 25.9043 22.0702 26.079 21.656 26.1372L22.8986 27.8836H21.7743ZM21.0051 25.3804C21.5376 25.3804 21.8335 25.1476 21.8335 24.7401C21.8335 24.5073 21.7743 24.3326 21.5968 24.2162C21.4785 24.0998 21.2418 24.0416 20.9459 24.0416H18.2832V25.3222H21.0051V25.3804ZM31.4193 27.8836V24.0416V24.0998L29.0524 27.2432L26.6856 24.0998V24.158V27.9418H25.798V23.2848H27.1589L29.0524 25.9043L30.9459 23.2848H32.3069V27.8836H31.4193ZM35.5613 27.8836V23.2848H40.4134V24.0998H36.4489V25.0894H39.1708V25.9043H36.4489V27.0686H40.5909V27.8836H35.5613ZM47.869 27.8836L46.6264 26.1954H44.3187V27.8836H43.4311V23.2848H47.2181C47.4548 23.2848 47.6915 23.343 47.869 23.4012C48.0465 23.4594 48.224 23.5759 48.4015 23.6923C48.5199 23.8087 48.6382 23.9833 48.7566 24.158C48.8157 24.3326 48.8749 24.5655 48.8749 24.7401C48.8749 25.0894 48.7566 25.4386 48.579 25.6715C48.4015 25.9043 48.1057 26.079 47.6915 26.1372L48.9341 27.8836H47.869ZM47.0406 25.3804C47.5731 25.3804 47.869 25.1476 47.869 24.7401C47.869 24.5073 47.8098 24.3326 47.6323 24.2162C47.4548 24.0998 47.2773 24.0416 46.9814 24.0416H44.3187V25.3222H47.0406V25.3804ZM51.8927 27.8836V23.2848H52.7802V27.0686H56.3897V27.8836H51.8927ZM60.4725 26.079V27.8836H59.585V26.079L56.9222 23.2848H58.0465L60.0583 25.3804L62.0702 23.2848H63.1944L60.4725 26.079ZM74.3187 24.6237C74.082 24.3908 73.7861 24.2162 73.4903 24.0998C73.1944 23.9833 72.8394 23.9251 72.4252 23.9251C72.0702 23.9251 71.7743 23.9833 71.5376 24.0416C71.2418 24.0998 71.0643 24.2162 70.8276 24.3908C70.6501 24.5073 70.4725 24.6819 70.4134 24.9147C70.295 25.0894 70.2358 25.3222 70.2358 25.5551C70.2358 25.7879 70.295 26.0208 70.4134 26.1954C70.5317 26.37 70.6501 26.5447 70.8276 26.7193C71.0051 26.894 71.2418 26.9522 71.5376 27.0686C71.8335 27.1268 72.1293 27.185 72.4844 27.185C72.8986 27.185 73.2536 27.1268 73.5495 27.0104C73.8453 26.894 74.1412 26.7193 74.3779 26.4283L75.1471 26.8357C74.7921 27.2432 74.3779 27.5343 73.9637 27.7089C73.5495 27.8836 73.0169 28 72.4252 28C71.9518 28 71.5376 27.9418 71.1234 27.8253C70.7092 27.7089 70.4134 27.5343 70.1175 27.3014C69.8217 27.0686 69.6441 26.8357 69.4666 26.5447C69.3483 26.2536 69.2299 25.9043 69.2299 25.5551C69.2299 24.7983 69.585 24.2162 70.2358 23.7505C70.4725 23.5759 70.8276 23.4012 71.1826 23.2848C71.5376 23.1684 71.9518 23.1102 72.366 23.1102C72.9577 23.1102 73.4903 23.2266 73.9045 23.4012C74.3779 23.6341 74.7921 23.9251 75.1471 24.3326L74.3187 24.6237ZM78.0465 27.8836V23.2848H78.9341V27.0686H82.5435V27.8836H78.0465ZM85.0879 27.8836V23.2848H89.94V24.0998H85.9755V25.0894H88.6974V25.9043H85.9755V27.0686H90.1175V27.8836H85.0879ZM97.3956 27.8836L96.8631 26.894H93.727L93.1944 27.8836H92.1885L94.7329 23.2848H95.8572L98.4015 27.8836H97.3956ZM95.3246 24.0416L94.2004 26.079H96.4489L95.3246 24.0416ZM105.325 27.8836L104.082 26.1954H101.833V27.8836H100.946V23.2848H104.733C104.97 23.2848 105.206 23.343 105.384 23.4012C105.561 23.4594 105.739 23.5759 105.916 23.6923C106.035 23.8087 106.153 23.9833 106.271 24.158C106.331 24.3326 106.39 24.5655 106.39 24.7401C106.39 25.0894 106.271 25.4386 106.094 25.6715C105.916 25.9043 105.62 26.079 105.206 26.1372L106.449 27.8836H105.325ZM104.555 25.3804C105.088 25.3804 105.384 25.1476 105.384 24.7401C105.384 24.5073 105.325 24.3326 105.147 24.2162C105.029 24.0998 104.792 24.0416 104.496 24.0416H101.833V25.3222H104.555V25.3804ZM114.2 25.4969C114.437 25.6133 114.674 25.7879 114.792 25.9626C114.91 26.1372 114.97 26.37 114.97 26.6611C114.97 27.0686 114.792 27.3596 114.496 27.5925C114.2 27.8253 113.727 27.8836 113.135 27.8836H109.348V23.2848H113.194C113.431 23.2848 113.668 23.343 113.845 23.4012C114.023 23.4594 114.2 23.5759 114.319 23.6341C114.437 23.7505 114.555 23.8669 114.615 24.0416C114.674 24.2162 114.733 24.3908 114.733 24.5655C114.792 24.9147 114.555 25.264 114.2 25.4969ZM113.194 25.1476C113.431 25.1476 113.609 25.0894 113.727 24.973C113.845 24.8565 113.904 24.7401 113.904 24.5655C113.904 24.3908 113.845 24.2744 113.727 24.2162C113.609 24.0998 113.431 24.0998 113.254 24.0998H110.295V25.1476H113.194ZM113.135 27.0686C113.431 27.0686 113.668 27.0104 113.786 26.9522C113.964 26.8357 114.023 26.7193 114.023 26.5447C114.023 26.37 113.964 26.2536 113.786 26.1372C113.668 26.0208 113.431 25.9626 113.135 25.9626H110.177V27.0686H113.135ZM122.425 27.8836L121.893 26.894H118.757L118.224 27.8836H117.218L119.762 23.2848H120.887L123.431 27.8836H122.425ZM120.295 24.0416L119.171 26.079H121.419L120.295 24.0416ZM129.94 27.8836L126.745 24.0416V27.8836H125.857V23.2848H127.218L130.413 27.1268V23.2848H131.301V27.8836H129.94ZM139.289 24.6237C139.052 24.3908 138.757 24.2162 138.461 24.0998C138.165 23.9833 137.81 23.9251 137.396 23.9251C137.041 23.9251 136.745 23.9833 136.508 24.0416C136.212 24.0998 136.035 24.2162 135.798 24.3908C135.62 24.5073 135.443 24.6819 135.384 24.9147C135.265 25.0894 135.206 25.3222 135.206 25.5551C135.206 25.7879 135.265 26.0208 135.384 26.1954C135.502 26.37 135.62 26.5447 135.798 26.7193C135.975 26.894 136.212 26.9522 136.508 27.0686C136.804 27.1268 137.1 27.185 137.455 27.185C137.869 27.185 138.224 27.1268 138.52 27.0104C138.816 26.894 139.112 26.7193 139.348 26.4283L140.118 26.8357C139.762 27.2432 139.348 27.5343 138.934 27.7089C138.52 27.8836 137.987 28 137.396 28C136.922 28 136.508 27.9418 136.094 27.8253C135.68 27.7089 135.384 27.5343 135.088 27.3014C134.792 27.0686 134.615 26.8357 134.437 26.5447C134.319 26.2536 134.2 25.9043 134.2 25.5551C134.2 24.7983 134.555 24.2162 135.206 23.7505C135.443 23.5759 135.798 23.4012 136.153 23.2848C136.508 23.1684 136.922 23.1102 137.336 23.1102C137.928 23.1102 138.461 23.2266 138.875 23.4012C139.348 23.6341 139.762 23.9251 140.118 24.3326L139.289 24.6237Z" fill="#1E1942"/>
<path d="M3.66772 4.48232C3.01683 4.48232 2.54346 3.95841 2.54346 3.37629C2.54346 2.73596 3.076 2.27026 3.66772 2.27026C4.3186 2.27026 4.79198 2.79417 4.79198 3.37629C4.85115 4.01663 4.3186 4.48232 3.66772 4.48232Z" fill="#1E1942"/>
<path d="M3.66781 4.42413C4.25953 4.42413 4.7329 3.95843 4.7329 3.37631C4.7329 2.79419 4.25953 2.32849 3.66781 2.32849C3.07609 2.32849 2.60272 2.79419 2.60272 3.37631C2.60272 3.95843 3.07609 4.42413 3.66781 4.42413Z" fill="#1E1942"/>
<path d="M1.77428 11.2932C1.1234 11.2932 0.650024 10.7693 0.650024 10.1871C0.650024 9.54681 1.18257 9.08112 1.77428 9.08112C2.42517 9.08112 2.89855 9.60502 2.89855 10.1871C2.95772 10.8275 2.42517 11.2932 1.77428 11.2932Z" fill="#1E1942"/>
<path d="M1.77499 11.2349C2.3667 11.2349 2.84008 10.7692 2.84008 10.1871C2.84008 9.60498 2.3667 9.13928 1.77499 9.13928C1.18327 9.13928 0.7099 9.60498 0.7099 10.1871C0.7099 10.7692 1.18327 11.2349 1.77499 11.2349Z" fill="#1E1942"/>
<path d="M1.77428 7.45113C1.18257 7.45113 0.650024 6.98544 0.650024 6.3451C0.650024 5.70477 1.18257 5.23907 1.77428 5.23907C2.42517 5.23907 2.95772 5.70477 2.95772 6.3451C2.95772 6.98544 2.42517 7.45113 1.77428 7.45113Z" fill="#1E1942"/>
<path d="M1.77499 7.39294C2.3667 7.39294 2.84008 6.92724 2.84008 6.34512C2.84008 5.763 2.3667 5.2973 1.77499 5.2973C1.18327 5.2973 0.7099 5.763 0.7099 6.34512C0.7099 6.92724 1.18327 7.39294 1.77499 7.39294Z" fill="#1E1942"/>
<path d="M7.04058 2.73598C6.38969 2.73598 5.91632 2.21208 5.91632 1.62995C5.91632 1.04783 6.44887 0.523926 7.04058 0.523926C7.69147 0.523926 8.16484 1.04783 8.16484 1.62995C8.16484 2.21208 7.69147 2.73598 7.04058 2.73598Z" fill="#1E1942"/>
<path d="M7.04055 2.67779C7.63227 2.67779 8.10564 2.21209 8.10564 1.62997C8.10564 1.04785 7.63227 0.582153 7.04055 0.582153C6.44884 0.582153 5.97546 1.04785 5.97546 1.62997C5.97546 2.21209 6.44884 2.67779 7.04055 2.67779Z" fill="#1E1942"/>
<path d="M17.0997 4.65699C16.6855 4.65699 16.3304 4.42414 16.0938 4.07487C15.7979 3.55096 15.9754 2.85242 16.508 2.56136C16.6855 2.44493 16.863 2.38672 17.0997 2.38672C17.5139 2.38672 17.8689 2.61957 18.1056 2.96884C18.2831 3.20169 18.2831 3.55096 18.2239 3.84202C18.1648 4.13308 17.9281 4.36593 17.6914 4.54057C17.4547 4.59878 17.2772 4.65699 17.0997 4.65699Z" fill="#1E1942"/>
<path d="M17.0998 4.59875C17.6915 4.59875 18.1648 4.13305 18.1648 3.55093C18.1648 2.96881 17.6915 2.50311 17.0998 2.50311C16.508 2.50311 16.0347 2.96881 16.0347 3.55093C16.0347 4.13305 16.508 4.59875 17.0998 4.59875Z" fill="#1E1942"/>
<path d="M14.1412 2.96882C13.8453 2.96882 13.6086 2.85239 13.4311 2.67776C12.9577 2.27027 12.8986 1.57173 13.3128 1.10603C13.5494 0.873183 13.8453 0.698547 14.2003 0.698547C14.4962 0.698547 14.7329 0.814971 14.9104 0.989608C15.3838 1.39709 15.4429 2.09564 15.0287 2.56133C14.792 2.79418 14.437 2.96882 14.1412 2.96882Z" fill="#1E1942"/>
<path d="M14.1412 2.91064C14.7329 2.91064 15.2063 2.44494 15.2063 1.86282C15.2063 1.2807 14.7329 0.815002 14.1412 0.815002C13.5495 0.815002 13.0761 1.2807 13.0761 1.86282C13.0761 2.44494 13.5495 2.91064 14.1412 2.91064Z" fill="#1E1942"/>
<path d="M10.7684 2.3285C10.6501 2.3285 10.5317 2.3285 10.3542 2.27029C10.0584 2.15386 9.82167 1.97923 9.70332 1.68817C9.58498 1.39711 9.58498 1.10604 9.64415 0.814984C9.82167 0.349288 10.2359 0.0582275 10.7092 0.0582275C10.8276 0.0582275 10.9459 0.0582275 11.1234 0.11644C11.4193 0.232864 11.656 0.4075 11.7743 0.69856C11.8927 0.989621 11.8927 1.28068 11.8335 1.57174C11.656 2.03744 11.2418 2.3285 10.7684 2.3285Z" fill="#1E1942"/>
<path d="M10.7683 2.27026C11.36 2.27026 11.8334 1.80456 11.8334 1.22244C11.8334 0.640318 11.36 0.174622 10.7683 0.174622C10.1766 0.174622 9.70324 0.640318 9.70324 1.22244C9.64407 1.80456 10.1766 2.27026 10.7683 2.27026Z" fill="#1E1942"/>
<path d="M3.66772 14.262C3.01683 14.262 2.54346 13.7381 2.54346 13.156C2.54346 12.5156 3.076 12.0499 3.66772 12.0499C4.3186 12.0499 4.79198 12.5738 4.79198 13.156C4.85115 13.7963 4.3186 14.262 3.66772 14.262Z" fill="#1E1942"/>
<path d="M3.66781 14.2038C4.25953 14.2038 4.7329 13.7381 4.7329 13.156C4.7329 12.5739 4.25953 12.1082 3.66781 12.1082C3.07609 12.1082 2.60272 12.5739 2.60272 13.156C2.60272 13.7381 3.07609 14.2038 3.66781 14.2038Z" fill="#1E1942"/>
<path d="M7.04058 15.9501C7.69147 15.9501 8.16484 15.4262 8.16484 14.8441C8.16484 14.2037 7.6323 13.738 7.04058 13.738C6.38969 13.738 5.91632 14.2619 5.91632 14.8441C5.91632 15.4262 6.38969 15.9501 7.04058 15.9501Z" fill="#1E1942"/>
<path d="M7.04055 15.8337C7.63227 15.8337 8.10564 15.368 8.10564 14.7859C8.10564 14.2037 7.63227 13.738 7.04055 13.738C6.44884 13.738 5.97546 14.2037 5.97546 14.7859C5.97546 15.368 6.44884 15.8337 7.04055 15.8337Z" fill="#1E1942"/>
<path d="M17.0998 14.1456C16.9223 14.1456 16.6856 14.0873 16.5081 13.9709C16.2714 13.7963 16.0347 13.5634 15.9755 13.2724C15.9163 12.9813 15.9163 12.6903 16.0939 12.3992C16.2714 12.0499 16.6856 11.8171 17.0998 11.8171C17.2773 11.8171 17.514 11.8753 17.6915 11.9917C17.9282 12.1664 18.1649 12.3992 18.224 12.6903C18.2832 12.9813 18.2832 13.2724 18.1057 13.5634C17.869 13.9127 17.514 14.1456 17.0998 14.1456Z" fill="#1E1942"/>
<path d="M17.0998 14.0873C17.6915 14.0873 18.1648 13.6216 18.1648 13.0395C18.1648 12.4574 17.6915 11.9917 17.0998 11.9917C16.508 11.9917 16.0347 12.4574 16.0347 13.0395C16.0347 13.6216 16.508 14.0873 17.0998 14.0873Z" fill="#1E1942"/>
<path d="M14.1411 15.8337C13.7861 15.8337 13.4902 15.6591 13.2536 15.4262C12.8394 14.9605 12.8985 14.262 13.3719 13.8545C13.5494 13.6798 13.8453 13.5634 14.082 13.5634C14.437 13.5634 14.7328 13.7381 14.9695 13.9709C15.3837 14.4366 15.3246 15.1351 14.8512 15.5426C14.6737 15.7173 14.3778 15.8337 14.1411 15.8337Z" fill="#1E1942"/>
<path d="M14.1412 15.7755C14.7329 15.7755 15.2063 15.3098 15.2063 14.7277C15.2063 14.1456 14.7329 13.6799 14.1412 13.6799C13.5495 13.6799 13.0761 14.1456 13.0761 14.7277C13.0761 15.3098 13.5495 15.7755 14.1412 15.7755Z" fill="#1E1942"/>
<path d="M10.7684 16.4158C10.295 16.4158 9.88078 16.1248 9.70327 15.6591C9.58492 15.368 9.58492 15.077 9.76244 14.7859C9.88078 14.4948 10.1175 14.3202 10.4133 14.2038C10.5317 14.1456 10.65 14.1456 10.8275 14.1456C11.3009 14.1456 11.7151 14.4366 11.8926 14.9023C12.1293 15.4844 11.7743 16.1248 11.1826 16.3576C11.005 16.3576 10.8867 16.4158 10.7684 16.4158Z" fill="#1E1942"/>
<path d="M10.7683 16.3576C11.36 16.3576 11.8334 15.8919 11.8334 15.3098C11.8334 14.7277 11.36 14.262 10.7683 14.262C10.1766 14.262 9.70324 14.7277 9.70324 15.3098C9.64407 15.8919 10.1766 16.3576 10.7683 16.3576Z" fill="#1E1942"/>
<path d="M103.727 4.48232C103.076 4.48232 102.603 3.95841 102.603 3.37629C102.603 2.73596 103.135 2.27026 103.727 2.27026C104.378 2.27026 104.851 2.79417 104.851 3.37629C104.91 4.01663 104.378 4.48232 103.727 4.48232Z" fill="#1E1942"/>
<path d="M103.727 4.42413C104.319 4.42413 104.792 3.95843 104.792 3.37631C104.792 2.79419 104.319 2.32849 103.727 2.32849C103.135 2.32849 102.662 2.79419 102.662 3.37631C102.662 3.95843 103.135 4.42413 103.727 4.42413Z" fill="#1E1942"/>
<path d="M101.833 11.2932C101.183 11.2932 100.709 10.7693 100.709 10.1871C100.709 9.54681 101.242 9.08112 101.833 9.08112C102.484 9.08112 102.958 9.60502 102.958 10.1871C102.958 10.8275 102.484 11.2932 101.833 11.2932Z" fill="#1E1942"/>
<path d="M101.833 11.2349C102.425 11.2349 102.898 10.7692 102.898 10.1871C102.898 9.60498 102.425 9.13928 101.833 9.13928C101.242 9.13928 100.768 9.60498 100.768 10.1871C100.768 10.7692 101.242 11.2349 101.833 11.2349Z" fill="#1E1942"/>
<path d="M101.833 7.45113C101.183 7.45113 100.709 6.92723 100.709 6.3451C100.709 5.70477 101.242 5.23907 101.833 5.23907C102.484 5.23907 102.958 5.76298 102.958 6.3451C102.958 6.98544 102.484 7.45113 101.833 7.45113Z" fill="#1E1942"/>
<path d="M101.833 7.39294C102.425 7.39294 102.898 6.92724 102.898 6.34512C102.898 5.763 102.425 5.2973 101.833 5.2973C101.242 5.2973 100.768 5.763 100.768 6.34512C100.768 6.92724 101.242 7.39294 101.833 7.39294Z" fill="#1E1942"/>
<path d="M107.1 2.73598C106.449 2.73598 105.975 2.21208 105.975 1.62995C105.975 1.04783 106.508 0.523926 107.1 0.523926C107.751 0.523926 108.224 1.04783 108.224 1.62995C108.224 2.21208 107.751 2.73598 107.1 2.73598Z" fill="#1E1942"/>
<path d="M107.1 2.67779C107.691 2.67779 108.165 2.21209 108.165 1.62997C108.165 1.04785 107.691 0.582153 107.1 0.582153C106.508 0.582153 106.035 1.04785 106.035 1.62997C106.035 2.21209 106.508 2.67779 107.1 2.67779Z" fill="#1E1942"/>
<path d="M117.159 4.65699C116.745 4.65699 116.39 4.42414 116.153 4.07487C115.857 3.55096 116.035 2.85242 116.567 2.56136C116.745 2.44493 116.922 2.38672 117.159 2.38672C117.573 2.38672 117.928 2.61957 118.165 2.96884C118.342 3.20169 118.342 3.55096 118.283 3.84202C118.224 4.13308 117.987 4.36593 117.751 4.54057C117.514 4.59878 117.336 4.65699 117.159 4.65699Z" fill="#1E1942"/>
<path d="M117.159 4.59875C117.751 4.59875 118.224 4.13305 118.224 3.55093C118.224 2.96881 117.751 2.50311 117.159 2.50311C116.567 2.50311 116.094 2.96881 116.094 3.55093C116.094 4.13305 116.567 4.59875 117.159 4.59875Z" fill="#1E1942"/>
<path d="M114.2 2.96882C113.904 2.96882 113.668 2.85239 113.49 2.67776C113.254 2.50312 113.135 2.21206 113.076 1.921C113.076 1.62994 113.135 1.33888 113.313 1.10603C113.549 0.873183 113.845 0.698547 114.2 0.698547C114.496 0.698547 114.733 0.814971 114.91 0.989608C115.147 1.16424 115.265 1.4553 115.325 1.74636C115.325 2.03742 115.265 2.32848 115.088 2.56133C114.851 2.79418 114.496 2.96882 114.2 2.96882Z" fill="#1E1942"/>
<path d="M114.2 2.91064C114.792 2.91064 115.265 2.44494 115.265 1.86282C115.265 1.2807 114.792 0.815002 114.2 0.815002C113.608 0.815002 113.135 1.2807 113.135 1.86282C113.135 2.44494 113.608 2.91064 114.2 2.91064Z" fill="#1E1942"/>
<path d="M110.828 2.3285C110.709 2.3285 110.591 2.3285 110.413 2.27029C109.822 2.03744 109.526 1.3971 109.703 0.814984C109.881 0.349288 110.295 0.0582275 110.768 0.0582275C110.887 0.0582275 111.005 0.0582275 111.183 0.11644C111.478 0.232864 111.715 0.4075 111.833 0.69856C111.952 0.989621 111.952 1.28068 111.893 1.57174C111.715 2.03744 111.301 2.3285 110.828 2.3285Z" fill="#1E1942"/>
<path d="M110.827 2.27026C111.419 2.27026 111.893 1.80456 111.893 1.22244C111.893 0.640318 111.419 0.174622 110.827 0.174622C110.236 0.174622 109.762 0.640318 109.762 1.22244C109.703 1.80456 110.236 2.27026 110.827 2.27026Z" fill="#1E1942"/>
<path d="M103.727 14.262C103.076 14.262 102.603 13.7381 102.603 13.156C102.603 12.5156 103.135 12.0499 103.727 12.0499C104.378 12.0499 104.851 12.5738 104.851 13.156C104.91 13.7963 104.378 14.262 103.727 14.262Z" fill="#1E1942"/>
<path d="M103.727 14.2038C104.319 14.2038 104.792 13.7381 104.792 13.156C104.792 12.5739 104.319 12.1082 103.727 12.1082C103.135 12.1082 102.662 12.5739 102.662 13.156C102.662 13.7381 103.135 14.2038 103.727 14.2038Z" fill="#1E1942"/>
<path d="M107.1 15.9501C106.449 15.9501 105.975 15.4262 105.975 14.8441C105.975 14.2037 106.508 13.738 107.1 13.738C107.751 13.738 108.224 14.2619 108.224 14.8441C108.224 15.4262 107.751 15.9501 107.1 15.9501Z" fill="#1E1942"/>
<path d="M107.1 15.8337C107.691 15.8337 108.165 15.368 108.165 14.7859C108.165 14.2037 107.691 13.738 107.1 13.738C106.508 13.738 106.035 14.2037 106.035 14.7859C106.035 15.368 106.508 15.8337 107.1 15.8337Z" fill="#1E1942"/>
<path d="M117.159 14.1456C116.981 14.1456 116.745 14.0873 116.567 13.9709C116.33 13.7963 116.094 13.5634 116.035 13.2724C115.975 12.9813 115.975 12.6903 116.153 12.3992C116.33 12.0499 116.745 11.8171 117.159 11.8171C117.336 11.8171 117.573 11.8753 117.751 11.9917C117.987 12.1664 118.224 12.3992 118.283 12.6903C118.342 12.9813 118.342 13.2724 118.165 13.5634C117.928 13.9127 117.573 14.1456 117.159 14.1456Z" fill="#1E1942"/>
<path d="M117.159 14.0873C117.751 14.0873 118.224 13.6216 118.224 13.0395C118.224 12.4574 117.751 11.9917 117.159 11.9917C116.567 11.9917 116.094 12.4574 116.094 13.0395C116.094 13.6216 116.567 14.0873 117.159 14.0873Z" fill="#1E1942"/>
<path d="M114.2 15.8337C113.845 15.8337 113.549 15.6591 113.313 15.4262C113.135 15.1934 113.017 14.9023 113.076 14.6112C113.076 14.3202 113.254 14.0291 113.49 13.8545C113.668 13.6798 113.964 13.5634 114.2 13.5634C114.555 13.5634 114.851 13.7381 115.088 13.9709C115.265 14.2037 115.384 14.4948 115.325 14.7859C115.325 15.0769 115.147 15.368 114.91 15.5426C114.733 15.7173 114.437 15.8337 114.2 15.8337Z" fill="#1E1942"/>
<path d="M114.2 15.7755C114.792 15.7755 115.265 15.3098 115.265 14.7277C115.265 14.1456 114.792 13.6799 114.2 13.6799C113.608 13.6799 113.135 14.1456 113.135 14.7277C113.135 15.3098 113.608 15.7755 114.2 15.7755Z" fill="#1E1942"/>
<path d="M110.828 16.4158C110.354 16.4158 109.94 16.1248 109.762 15.6591C109.526 15.077 109.881 14.4366 110.472 14.2038C110.591 14.1456 110.709 14.1456 110.887 14.1456C111.36 14.1456 111.774 14.4366 111.952 14.9023C112.07 15.1934 112.07 15.4844 111.893 15.7755C111.774 16.0666 111.538 16.2412 111.242 16.3576C111.064 16.3576 110.946 16.4158 110.828 16.4158Z" fill="#1E1942"/>
<path d="M110.827 16.3576C111.419 16.3576 111.893 15.8919 111.893 15.3098C111.893 14.7277 111.419 14.262 110.827 14.262C110.236 14.262 109.762 14.7277 109.762 15.3098C109.703 15.8919 110.236 16.3576 110.827 16.3576Z" fill="#1E1942"/>
<path d="M22.7802 2.61956C22.366 2.61956 22.011 2.38671 21.7743 2.03744C21.5968 1.80459 21.5968 1.45532 21.6559 1.16426C21.7151 0.873197 21.9518 0.640349 22.1885 0.465713C22.366 0.349289 22.5435 0.291077 22.7802 0.291077C23.1944 0.291077 23.5494 0.523925 23.7861 0.873197C24.082 1.39711 23.9045 2.09565 23.3719 2.38671C23.1944 2.56135 23.0169 2.61956 22.7802 2.61956Z" fill="#1E1942"/>
<path d="M22.7802 2.56133C23.372 2.56133 23.8453 2.09564 23.8453 1.51352C23.8453 0.931395 23.372 0.465698 22.7802 0.465698C22.1885 0.465698 21.7151 0.931395 21.7151 1.51352C21.7151 2.09564 22.1885 2.56133 22.7802 2.56133Z" fill="#1E1942"/>
<path d="M22.7802 5.93768C22.366 5.93768 22.011 5.70483 21.7743 5.35555C21.5968 5.12271 21.5968 4.77343 21.6559 4.48237C21.7151 4.19131 21.9518 3.95846 22.1885 3.78383C22.366 3.6674 22.5435 3.60919 22.7802 3.60919C23.1944 3.60919 23.5494 3.84204 23.7861 4.19131C24.082 4.71522 23.9045 5.41377 23.3719 5.70483C23.1944 5.87946 23.0169 5.93768 22.7802 5.93768Z" fill="#1E1942"/>
<path d="M22.7802 5.87945C23.372 5.87945 23.8453 5.41375 23.8453 4.83163C23.8453 4.24951 23.372 3.78381 22.7802 3.78381C22.1885 3.78381 21.7151 4.24951 21.7151 4.83163C21.7151 5.41375 22.1885 5.87945 22.7802 5.87945Z" fill="#1E1942"/>
<path d="M22.7802 9.25573C22.366 9.25573 22.011 9.02288 21.7743 8.67361C21.5968 8.44076 21.5968 8.09149 21.6559 7.80043C21.7151 7.50937 21.9518 7.27652 22.1885 7.10188C22.366 6.98546 22.5435 6.92725 22.7802 6.92725C23.1944 6.92725 23.5494 7.16009 23.7861 7.50937C24.082 8.03328 23.9045 8.73182 23.3719 9.02288C23.1944 9.19752 23.0169 9.25573 22.7802 9.25573Z" fill="#1E1942"/>
<path d="M22.7802 9.1975C23.372 9.1975 23.8453 8.73181 23.8453 8.14969C23.8453 7.56756 23.372 7.10187 22.7802 7.10187C22.1885 7.10187 21.7151 7.56756 21.7151 8.14969C21.7151 8.73181 22.1885 9.1975 22.7802 9.1975Z" fill="#1E1942"/>
<path d="M22.7802 12.5156C22.366 12.5156 22.011 12.2828 21.7743 11.9335C21.5968 11.7006 21.5968 11.3514 21.6559 11.0603C21.7151 10.7693 21.9518 10.5364 22.1885 10.3618C22.366 10.2453 22.5435 10.1871 22.7802 10.1871C23.1944 10.1871 23.5494 10.42 23.7861 10.7693C24.082 11.2932 23.9045 11.9917 23.3719 12.2828C23.1944 12.4574 23.0169 12.5156 22.7802 12.5156Z" fill="#1E1942"/>
<path d="M22.7802 12.4574C23.372 12.4574 23.8453 11.9917 23.8453 11.4096C23.8453 10.8275 23.372 10.3618 22.7802 10.3618C22.1885 10.3618 21.7151 10.8275 21.7151 11.4096C21.7151 11.9917 22.1885 12.4574 22.7802 12.4574Z" fill="#1E1942"/>
<path d="M36.3304 15.8919C35.9162 15.8919 35.5612 15.6591 35.3245 15.3098C35.0287 14.7859 35.2062 14.0873 35.7387 13.7963C35.9162 13.6799 36.0938 13.6216 36.3304 13.6216C36.7446 13.6216 37.0997 13.8545 37.3364 14.2038C37.6322 14.7277 37.4547 15.4262 36.9222 15.7173C36.7446 15.8337 36.5671 15.8919 36.3304 15.8919Z" fill="#1E1942"/>
<path d="M36.3305 15.8337C36.9222 15.8337 37.3956 15.368 37.3956 14.7859C37.3956 14.2037 36.9222 13.738 36.3305 13.738C35.7388 13.738 35.2654 14.2037 35.2654 14.7859C35.2654 15.368 35.7388 15.8337 36.3305 15.8337Z" fill="#1E1942"/>
<path d="M33.0169 15.8919C32.6027 15.8919 32.2476 15.6591 32.0109 15.3098C31.7151 14.7859 31.8926 14.0873 32.4251 13.7963C32.6027 13.6799 32.7802 13.6216 33.0169 13.6216C33.4311 13.6216 33.7861 13.8545 34.0228 14.2038C34.3186 14.7277 34.1411 15.4262 33.6086 15.7173C33.4311 15.8337 33.1944 15.8919 33.0169 15.8919Z" fill="#1E1942"/>
<path d="M33.0169 15.8337C33.6086 15.8337 34.082 15.368 34.082 14.7859C34.082 14.2037 33.6086 13.738 33.0169 13.738C32.4252 13.738 31.9518 14.2037 31.9518 14.7859C31.9518 15.368 32.4252 15.8337 33.0169 15.8337Z" fill="#1E1942"/>
<path d="M29.6441 15.8919C29.2299 15.8919 28.8749 15.6591 28.6382 15.3098C28.3423 14.7859 28.5198 14.0873 29.0524 13.7963C29.2299 13.6799 29.4074 13.6216 29.6441 13.6216C30.0583 13.6216 30.4133 13.8545 30.65 14.2038C30.9459 14.7277 30.7684 15.4262 30.2358 15.7173C30.0583 15.8337 29.8808 15.8919 29.6441 15.8919Z" fill="#1E1942"/>
<path d="M29.6441 15.8337C30.2358 15.8337 30.7092 15.368 30.7092 14.7859C30.7092 14.2037 30.2358 13.738 29.6441 13.738C29.0524 13.738 28.579 14.2037 28.579 14.7859C28.579 15.368 29.0524 15.8337 29.6441 15.8337Z" fill="#1E1942"/>
<path d="M26.3305 15.8919C25.9163 15.8919 25.5613 15.6591 25.3246 15.3098C25.0287 14.7859 25.2062 14.0873 25.7388 13.7963C25.9163 13.6799 26.0938 13.6216 26.3305 13.6216C26.7447 13.6216 27.0997 13.8545 27.3364 14.2038C27.6323 14.7277 27.4548 15.4262 26.9222 15.7173C26.7447 15.8337 26.508 15.8919 26.3305 15.8919Z" fill="#1E1942"/>
<path d="M26.3305 15.8337C26.9222 15.8337 27.3956 15.368 27.3956 14.7859C27.3956 14.2037 26.9222 13.738 26.3305 13.738C25.7388 13.738 25.2654 14.2037 25.2654 14.7859C25.2654 15.368 25.7388 15.8337 26.3305 15.8337Z" fill="#1E1942"/>
<path d="M22.7802 15.8337C22.366 15.8337 22.011 15.6008 21.7743 15.2516C21.4784 14.7277 21.656 14.0291 22.1885 13.7381C22.366 13.6216 22.5435 13.5634 22.7802 13.5634C23.1944 13.5634 23.5495 13.7963 23.7861 14.1455C24.082 14.6694 23.9045 15.368 23.3719 15.659C23.1944 15.7755 23.0169 15.8337 22.7802 15.8337Z" fill="#1E1942"/>
<path d="M22.7802 15.7755C23.372 15.7755 23.8453 15.3098 23.8453 14.7277C23.8453 14.1456 23.372 13.6799 22.7802 13.6799C22.1885 13.6799 21.7151 14.1456 21.7151 14.7277C21.7151 15.3098 22.1885 15.7755 22.7802 15.7755Z" fill="#1E1942"/>
<path d="M66.5672 4.7734C65.9163 4.7734 65.4429 4.24949 65.4429 3.66737C65.4429 3.02704 65.9755 2.56134 66.5672 2.56134C67.2181 2.56134 67.6915 3.08525 67.6915 3.66737C67.6915 4.24949 67.2181 4.7734 66.5672 4.7734Z" fill="#1E1942"/>
<path d="M66.5672 4.7152C67.1589 4.7152 67.6323 4.24951 67.6323 3.66739C67.6323 3.08526 67.1589 2.61957 66.5672 2.61957C65.9755 2.61957 65.5021 3.08526 65.5021 3.66739C65.5021 4.24951 65.9755 4.7152 66.5672 4.7152Z" fill="#1E1942"/>
<path d="M68.224 2.27029C67.5731 2.27029 67.0997 1.74638 67.0997 1.16426C67.0997 0.523924 67.6323 0.0582275 68.224 0.0582275C68.8749 0.0582275 69.3483 0.582136 69.3483 1.16426C69.4074 1.74638 68.8749 2.27029 68.224 2.27029Z" fill="#1E1942"/>
<path d="M68.224 2.21209C68.8157 2.21209 69.2891 1.74639 69.2891 1.16427C69.2891 0.582151 68.8157 0.116455 68.224 0.116455C67.6323 0.116455 67.1589 0.582151 67.1589 1.16427C67.1589 1.68818 67.6323 2.21209 68.224 2.21209Z" fill="#1E1942"/>
<path d="M64.9103 7.50936C64.2594 7.50936 63.7861 6.98545 63.7861 6.40333C63.7861 5.763 64.3186 5.2973 64.9103 5.2973C65.5612 5.2973 66.0346 5.82121 66.0346 6.40333C66.0346 6.98545 65.502 7.50936 64.9103 7.50936Z" fill="#1E1942"/>
<path d="M64.9104 7.45116C65.5021 7.45116 65.9755 6.98547 65.9755 6.40335C65.9755 5.82123 65.5021 5.35553 64.9104 5.35553C64.3187 5.35553 63.8453 5.82123 63.8453 6.40335C63.8453 6.98547 64.3187 7.45116 64.9104 7.45116Z" fill="#1E1942"/>
<path d="M63.2535 10.3618C62.6026 10.3618 62.1293 9.83787 62.1293 9.25575C62.1293 8.61542 62.6618 8.14972 63.2535 8.14972C63.9044 8.14972 64.3778 8.67363 64.3778 9.25575C64.3778 9.83787 63.8453 10.3618 63.2535 10.3618Z" fill="#1E1942"/>
<path d="M63.2536 10.3035C63.8453 10.3035 64.3187 9.83782 64.3187 9.2557C64.3187 8.67358 63.8453 8.20789 63.2536 8.20789C62.6619 8.20789 62.1885 8.67358 62.1885 9.2557C62.1885 9.83782 62.6619 10.3035 63.2536 10.3035Z" fill="#1E1942"/>
<path d="M61.5376 13.2141C60.8867 13.2141 60.4133 12.6902 60.4133 12.1081C60.4133 11.4678 60.9459 11.0021 61.5376 11.0021C62.1885 11.0021 62.6619 11.526 62.6619 12.1081C62.721 12.6902 62.1885 13.2141 61.5376 13.2141Z" fill="#1E1942"/>
<path d="M61.5376 13.1559C62.1293 13.1559 62.6026 12.6902 62.6026 12.1081C62.6026 11.526 62.1293 11.0603 61.5376 11.0603C60.9458 11.0603 60.4725 11.526 60.4725 12.1081C60.4725 12.6902 60.9458 13.1559 61.5376 13.1559Z" fill="#1E1942"/>
<path d="M59.8807 15.9501C59.2298 15.9501 58.7565 15.4262 58.7565 14.8441C58.7565 14.2037 59.289 13.738 59.8807 13.738C60.5316 13.738 61.005 14.2619 61.005 14.8441C61.005 15.4262 60.5316 15.9501 59.8807 15.9501Z" fill="#1E1942"/>
<path d="M59.8808 15.8919C60.4725 15.8919 60.9458 15.4262 60.9458 14.8441C60.9458 14.262 60.4725 13.7963 59.8808 13.7963C59.289 13.7963 58.8157 14.262 58.8157 14.8441C58.8157 15.4262 59.289 15.8919 59.8808 15.8919Z" fill="#1E1942"/>
<path d="M69.7625 4.7734C69.1116 4.7734 68.6382 4.24949 68.6382 3.66737C68.6382 3.02704 69.1707 2.56134 69.7625 2.56134C70.4133 2.56134 70.8867 3.08525 70.8867 3.66737C70.8867 4.24949 70.4133 4.7734 69.7625 4.7734Z" fill="#1E1942"/>
<path d="M69.7625 4.7152C70.3542 4.7152 70.8276 4.24951 70.8276 3.66739C70.8276 3.08526 70.3542 2.61957 69.7625 2.61957C69.1708 2.61957 68.6974 3.08526 68.6974 3.66739C68.6974 4.24951 69.1708 4.7152 69.7625 4.7152Z" fill="#1E1942"/>
<path d="M71.4192 7.50936C70.7684 7.50936 70.295 6.98545 70.295 6.40333C70.295 5.763 70.8275 5.2973 71.4192 5.2973C72.0701 5.2973 72.5435 5.82121 72.5435 6.40333C72.5435 6.98545 72.0701 7.50936 71.4192 7.50936Z" fill="#1E1942"/>
<path d="M71.4193 7.45116C72.011 7.45116 72.4844 6.98547 72.4844 6.40335C72.4844 5.82123 72.011 5.35553 71.4193 5.35553C70.8276 5.35553 70.3542 5.82123 70.3542 6.40335C70.3542 6.98547 70.8276 7.45116 71.4193 7.45116Z" fill="#1E1942"/>
<path d="M73.076 10.3618C72.4252 10.3618 71.9518 9.83787 71.9518 9.25575C71.9518 8.61542 72.4843 8.14972 73.076 8.14972C73.7269 8.14972 74.2003 8.67363 74.2003 9.25575C74.2595 9.83787 73.7269 10.3618 73.076 10.3618Z" fill="#1E1942"/>
<path d="M73.0761 10.3035C73.6678 10.3035 74.1412 9.83782 74.1412 9.2557C74.1412 8.67358 73.6678 8.20789 73.0761 8.20789C72.4844 8.20789 72.011 8.67358 72.011 9.2557C72.011 9.83782 72.4844 10.3035 73.0761 10.3035Z" fill="#1E1942"/>
<path d="M74.7921 13.2141C74.1412 13.2141 73.6678 12.6902 73.6678 12.1081C73.6678 11.4678 74.2004 11.0021 74.7921 11.0021C75.443 11.0021 75.9164 11.526 75.9164 12.1081C75.9164 12.6902 75.3838 13.2141 74.7921 13.2141Z" fill="#1E1942"/>
<path d="M74.7921 13.1559C75.3838 13.1559 75.8572 12.6902 75.8572 12.1081C75.8572 11.526 75.3838 11.0603 74.7921 11.0603C74.2004 11.0603 73.727 11.526 73.727 12.1081C73.6678 12.6902 74.2004 13.1559 74.7921 13.1559Z" fill="#1E1942"/>
<path d="M76.4488 15.9501C75.7979 15.9501 75.3245 15.4262 75.3245 14.8441C75.3245 14.2037 75.8571 13.738 76.4488 13.738C77.0997 13.738 77.573 14.2619 77.573 14.8441C77.573 15.4262 77.0405 15.9501 76.4488 15.9501Z" fill="#1E1942"/>
<path d="M76.4489 15.8919C77.0406 15.8919 77.514 15.4262 77.514 14.8441C77.514 14.262 77.0406 13.7963 76.4489 13.7963C75.8572 13.7963 75.3838 14.262 75.3838 14.8441C75.3838 15.4262 75.8572 15.8919 76.4489 15.8919Z" fill="#1E1942"/>
<path d="M41.2417 2.67779C40.8275 2.67779 40.4725 2.44494 40.2358 2.09567C40.0583 1.86282 40.0582 1.51355 40.1174 1.22248C40.1766 0.931425 40.4133 0.698577 40.65 0.52394C40.8275 0.407516 41.005 0.349304 41.2417 0.349304C41.6559 0.349304 42.0109 0.582152 42.2476 0.931425C42.5435 1.45533 42.3659 2.15388 41.8334 2.44494C41.5967 2.67779 41.4192 2.67779 41.2417 2.67779Z" fill="#1E1942"/>
<path d="M41.2417 2.61956C41.8334 2.61956 42.3068 2.15386 42.3068 1.57174C42.3068 0.989622 41.8334 0.523926 41.2417 0.523926C40.65 0.523926 40.1766 0.989622 40.1766 1.57174C40.1766 2.15386 40.65 2.61956 41.2417 2.61956Z" fill="#1E1942"/>
<path d="M41.2417 5.99584C40.8275 5.99584 40.4725 5.76299 40.2358 5.41372C40.0583 5.18087 40.0582 4.8316 40.1174 4.54054C40.1766 4.24948 40.4133 4.01663 40.65 3.84199C40.8275 3.72557 41.005 3.66736 41.2417 3.66736C41.6559 3.66736 42.0109 3.90021 42.2476 4.24948C42.5435 4.77339 42.3659 5.47193 41.8334 5.76299C41.5967 5.93763 41.4192 5.99584 41.2417 5.99584Z" fill="#1E1942"/>
<path d="M41.2417 5.93761C41.8334 5.93761 42.3068 5.47192 42.3068 4.8898C42.3068 4.30768 41.8334 3.84198 41.2417 3.84198C40.65 3.84198 40.1766 4.30768 40.1766 4.8898C40.1766 5.47192 40.65 5.93761 41.2417 5.93761Z" fill="#1E1942"/>
<path d="M41.2417 9.31396C40.8275 9.31396 40.4725 9.08111 40.2358 8.73184C40.0583 8.49899 40.0582 8.14971 40.1174 7.85865C40.1766 7.56759 40.4133 7.33475 40.65 7.16011C40.8275 7.04369 41.005 6.98547 41.2417 6.98547C41.6559 6.98547 42.0109 7.21832 42.2476 7.56759C42.5435 8.0915 42.3659 8.79005 41.8334 9.08111C41.5967 9.25574 41.4192 9.31396 41.2417 9.31396Z" fill="#1E1942"/>
<path d="M41.2417 9.25573C41.8334 9.25573 42.3068 8.79003 42.3068 8.20791C42.3068 7.62579 41.8334 7.1601 41.2417 7.1601C40.65 7.1601 40.1766 7.56758 40.1766 8.1497C40.1766 8.73182 40.65 9.25573 41.2417 9.25573Z" fill="#1E1942"/>
<path d="M41.2417 12.5738C40.8275 12.5738 40.4725 12.341 40.2358 11.9917C40.0583 11.7589 40.0582 11.4096 40.1174 11.1185C40.1766 10.8275 40.4133 10.5946 40.65 10.42C40.8275 10.3036 41.005 10.2454 41.2417 10.2454C41.6559 10.2454 42.0109 10.4782 42.2476 10.8275C42.5435 11.3514 42.3659 12.0499 41.8334 12.341C41.5967 12.5738 41.4192 12.5738 41.2417 12.5738Z" fill="#1E1942"/>
<path d="M41.2417 12.5156C41.8334 12.5156 42.3068 12.0499 42.3068 11.4678C42.3068 10.8857 41.8334 10.42 41.2417 10.42C40.65 10.42 40.1766 10.8857 40.1766 11.4678C40.1766 12.0499 40.65 12.5156 41.2417 12.5156Z" fill="#1E1942"/>
<path d="M54.7921 15.9501C54.3779 15.9501 54.0228 15.7173 53.7861 15.368C53.4903 14.8441 53.6678 14.1456 54.2003 13.8545C54.3779 13.7381 54.5554 13.6799 54.7921 13.6799C55.2063 13.6799 55.5613 13.9127 55.798 14.262C56.0938 14.7859 55.9163 15.4844 55.3838 15.7755C55.1471 15.8919 54.9696 15.9501 54.7921 15.9501Z" fill="#1E1942"/>
<path d="M54.792 15.8919C55.3837 15.8919 55.8571 15.4262 55.8571 14.8441C55.8571 14.262 55.3837 13.7963 54.792 13.7963C54.2003 13.7963 53.7269 14.262 53.7269 14.8441C53.7269 15.4262 54.2003 15.8919 54.792 15.8919Z" fill="#1E1942"/>
<path d="M51.4192 15.9501C51.005 15.9501 50.65 15.7173 50.4133 15.368C50.1174 14.8441 50.2949 14.1456 50.8275 13.8545C51.005 13.7381 51.1825 13.6799 51.4192 13.6799C51.8334 13.6799 52.1884 13.9127 52.4251 14.262C52.721 14.7859 52.5435 15.4844 52.0109 15.7755C51.8334 15.8919 51.6559 15.9501 51.4192 15.9501Z" fill="#1E1942"/>
<path d="M51.4193 15.8919C52.011 15.8919 52.4844 15.4262 52.4844 14.8441C52.4844 14.262 52.011 13.7963 51.4193 13.7963C50.8276 13.7963 50.3542 14.262 50.3542 14.8441C50.3542 15.4262 50.8276 15.8919 51.4193 15.8919Z" fill="#1E1942"/>
<path d="M48.1057 15.9501C47.6915 15.9501 47.3364 15.7173 47.0997 15.368C46.8039 14.8441 46.9814 14.1456 47.5139 13.8545C47.6915 13.7381 47.869 13.6799 48.1057 13.6799C48.5199 13.6799 48.8749 13.9127 49.1116 14.262C49.4074 14.7859 49.2299 15.4844 48.6974 15.7755C48.4607 15.8919 48.2832 15.9501 48.1057 15.9501Z" fill="#1E1942"/>
<path d="M48.1056 15.8919C48.6973 15.8919 49.1707 15.4262 49.1707 14.8441C49.1707 14.262 48.6973 13.7963 48.1056 13.7963C47.5139 13.7963 47.0405 14.262 47.0405 14.8441C47.0405 15.4262 47.5139 15.8919 48.1056 15.8919Z" fill="#1E1942"/>
<path d="M44.7329 15.9501C44.3187 15.9501 43.9636 15.7173 43.7269 15.368C43.4311 14.8441 43.6086 14.1456 44.1411 13.8545C44.3187 13.7381 44.4962 13.6799 44.7329 13.6799C45.1471 13.6799 45.5021 13.9127 45.7388 14.262C46.0346 14.7859 45.8571 15.4844 45.3246 15.7755C45.1471 15.8919 44.9695 15.9501 44.7329 15.9501Z" fill="#1E1942"/>
<path d="M44.7329 15.8919C45.3246 15.8919 45.798 15.4262 45.798 14.8441C45.798 14.262 45.3246 13.7963 44.7329 13.7963C44.1412 13.7963 43.6678 14.262 43.6678 14.8441C43.6678 15.4262 44.1412 15.8919 44.7329 15.8919Z" fill="#1E1942"/>
<path d="M54.7921 2.67774C54.3779 2.67774 54.0228 2.44489 53.7861 2.09562C53.4903 1.57171 53.6678 0.873167 54.2003 0.582107C54.3779 0.465683 54.5554 0.407471 54.7921 0.407471C55.2063 0.407471 55.5613 0.640319 55.798 0.989591C55.9755 1.22244 55.9755 1.57171 55.9163 1.86277C55.8571 2.15383 55.6205 2.38668 55.3838 2.56132C55.1471 2.67774 54.9696 2.67774 54.7921 2.67774Z" fill="#1E1942"/>
<path d="M54.792 2.61956C55.3837 2.61956 55.8571 2.15386 55.8571 1.57174C55.8571 0.989622 55.3837 0.523926 54.792 0.523926C54.2003 0.523926 53.7269 0.989622 53.7269 1.57174C53.7269 2.15386 54.2003 2.61956 54.792 2.61956Z" fill="#1E1942"/>
<path d="M51.4193 2.67779C51.0051 2.67779 50.6501 2.44494 50.4134 2.09567C50.2359 1.86282 50.2359 1.51355 50.295 1.22248C50.3542 0.931425 50.5909 0.698577 50.8276 0.52394C51.0051 0.407516 51.1826 0.349304 51.4193 0.349304C51.8335 0.349304 52.1885 0.582152 52.4252 0.931425C52.7211 1.45533 52.5435 2.15388 52.011 2.44494C51.8335 2.67779 51.656 2.67779 51.4193 2.67779Z" fill="#1E1942"/>
<path d="M51.4193 2.61956C52.011 2.61956 52.4844 2.15386 52.4844 1.57174C52.4844 0.989622 52.011 0.523926 51.4193 0.523926C50.8276 0.523926 50.3542 0.989622 50.3542 1.57174C50.3542 2.15386 50.8276 2.61956 51.4193 2.61956Z" fill="#1E1942"/>
<path d="M48.1057 2.67774C47.6915 2.67774 47.3364 2.44489 47.0997 2.09562C46.8039 1.62992 46.9814 0.931379 47.5139 0.582107C47.6915 0.465683 47.869 0.407471 48.1057 0.407471C48.5199 0.407471 48.8749 0.640319 49.1116 0.989591C49.2891 1.22244 49.2891 1.57171 49.2299 1.86277C49.1707 2.15383 48.9341 2.38668 48.6974 2.56132C48.4607 2.67774 48.2832 2.67774 48.1057 2.67774Z" fill="#1E1942"/>
<path d="M48.1056 2.61956C48.6973 2.61956 49.1707 2.15386 49.1707 1.57174C49.1707 0.989622 48.6973 0.523926 48.1056 0.523926C47.5139 0.523926 47.0405 0.989622 47.0405 1.57174C47.0405 2.15386 47.5139 2.61956 48.1056 2.61956Z" fill="#1E1942"/>
<path d="M44.7329 2.67779C44.3187 2.67779 43.9637 2.44494 43.727 2.09567C43.5495 1.86282 43.5495 1.51355 43.6086 1.22248C43.6678 0.931425 43.9045 0.698577 44.1412 0.52394C44.3187 0.407516 44.4962 0.349304 44.7329 0.349304C45.1471 0.349304 45.5021 0.582152 45.7388 0.931425C46.0347 1.45533 45.8572 2.15388 45.3246 2.44494C45.1471 2.67779 44.9696 2.67779 44.7329 2.67779Z" fill="#1E1942"/>
<path d="M44.7329 2.61956C45.3246 2.61956 45.798 2.15386 45.798 1.57174C45.798 0.989622 45.3246 0.523926 44.7329 0.523926C44.1412 0.523926 43.6678 0.989622 43.6678 1.57174C43.6678 2.15386 44.1412 2.61956 44.7329 2.61956Z" fill="#1E1942"/>
<path d="M51.4193 9.31396C51.0051 9.31396 50.6501 9.08111 50.4134 8.73184C50.2359 8.49899 50.2359 8.14971 50.295 7.85865C50.3542 7.56759 50.5909 7.33475 50.8276 7.16011C51.0051 7.04369 51.1826 6.98547 51.4193 6.98547C51.8335 6.98547 52.1885 7.21832 52.4252 7.56759C52.7211 8.0915 52.5435 8.79005 52.011 9.08111C51.8335 9.25574 51.656 9.31396 51.4193 9.31396Z" fill="#1E1942"/>
<path d="M51.4193 9.1975C52.011 9.1975 52.4844 8.73181 52.4844 8.14969C52.4844 7.56756 52.011 7.10187 51.4193 7.10187C50.8276 7.10187 50.3542 7.56756 50.3542 8.14969C50.3542 8.73181 50.8276 9.1975 51.4193 9.1975Z" fill="#1E1942"/>
<path d="M48.1057 9.31397C47.6915 9.31397 47.3364 9.08112 47.0997 8.73185C46.8039 8.20794 46.9814 7.5094 47.5139 7.21834C47.6915 7.10191 47.869 7.0437 48.1057 7.0437C48.5199 7.0437 48.8749 7.27655 49.1116 7.62582C49.2891 7.85867 49.2891 8.20794 49.2299 8.499C49.1707 8.79006 48.9341 9.02291 48.6974 9.19755C48.4607 9.25576 48.2832 9.31397 48.1057 9.31397Z" fill="#1E1942"/>
<path d="M48.1056 9.1975C48.6973 9.1975 49.1707 8.73181 49.1707 8.14969C49.1707 7.56756 48.6973 7.10187 48.1056 7.10187C47.5139 7.10187 47.0405 7.56756 47.0405 8.14969C47.0405 8.73181 47.5139 9.1975 48.1056 9.1975Z" fill="#1E1942"/>
<path d="M44.7329 9.31396C44.3187 9.31396 43.9637 9.08111 43.727 8.73184C43.5495 8.49899 43.5495 8.14971 43.6086 7.85865C43.6678 7.56759 43.9045 7.33475 44.1412 7.16011C44.3187 7.04369 44.4962 6.98547 44.7329 6.98547C45.1471 6.98547 45.5021 7.21832 45.7388 7.56759C46.0347 8.0915 45.8572 8.79005 45.3246 9.08111C45.1471 9.25574 44.9696 9.31396 44.7329 9.31396Z" fill="#1E1942"/>
<path d="M44.7329 9.1975C45.3246 9.1975 45.798 8.73181 45.798 8.14969C45.798 7.56756 45.3246 7.10187 44.7329 7.10187C44.1412 7.10187 43.6678 7.56756 43.6678 8.14969C43.6678 8.73181 44.1412 9.1975 44.7329 9.1975Z" fill="#1E1942"/>
<path d="M91.8334 9.1975C91.4192 9.1975 91.0642 8.96465 90.8275 8.61538C90.65 8.38253 90.65 8.03326 90.7092 7.7422C90.7683 7.45114 91.005 7.21829 91.2417 7.04365C91.4192 6.92723 91.5967 6.86902 91.8334 6.86902C92.2476 6.86902 92.6026 7.10187 92.8393 7.45114C93.0168 7.68399 93.0168 8.03326 92.9577 8.32432C92.8985 8.61538 92.6618 8.84823 92.4251 9.02287C92.2476 9.1975 92.0701 9.1975 91.8334 9.1975Z" fill="#1E1942"/>
<path d="M91.8335 9.13934C92.4252 9.13934 92.8985 8.67364 92.8985 8.09152C92.8985 7.5094 92.4252 7.0437 91.8335 7.0437C91.2417 7.0437 90.7684 7.5094 90.7684 8.09152C90.7684 8.67364 91.2417 9.13934 91.8335 9.13934Z" fill="#1E1942"/>
<path d="M88.5199 9.1975C88.1057 9.1975 87.7506 8.96465 87.514 8.61538C87.3364 8.38253 87.3364 8.03326 87.3956 7.7422C87.4548 7.45114 87.6915 7.21829 87.9282 7.04365C88.1057 6.92723 88.2832 6.86902 88.5199 6.86902C88.9341 6.86902 89.2891 7.10187 89.5258 7.45114C89.7033 7.68399 89.7033 8.03326 89.6441 8.32432C89.585 8.61538 89.3483 8.84823 89.1116 9.02287C88.9341 9.1975 88.6974 9.1975 88.5199 9.1975Z" fill="#1E1942"/>
<path d="M88.5198 9.13934C89.1115 9.13934 89.5849 8.67364 89.5849 8.09152C89.5849 7.5094 89.1115 7.0437 88.5198 7.0437C87.9281 7.0437 87.4547 7.5094 87.4547 8.09152C87.4547 8.67364 87.9281 9.13934 88.5198 9.13934Z" fill="#1E1942"/>
<path d="M85.1471 9.1975C84.7329 9.1975 84.3779 8.96465 84.1412 8.61538C83.9636 8.38253 83.9636 8.03326 84.0228 7.7422C84.082 7.45114 84.3187 7.21829 84.5554 7.04365C84.7329 6.92723 84.9104 6.86902 85.1471 6.86902C85.5613 6.86902 85.9163 7.10187 86.153 7.45114C86.3305 7.68399 86.3305 8.03326 86.2713 8.32432C86.2122 8.61538 85.9755 8.84823 85.7388 9.02287C85.5613 9.1975 85.3838 9.1975 85.1471 9.1975Z" fill="#1E1942"/>
<path d="M85.1471 9.13934C85.7388 9.13934 86.2122 8.67364 86.2122 8.09152C86.2122 7.5094 85.7388 7.0437 85.1471 7.0437C84.5553 7.0437 84.082 7.5094 84.082 8.09152C84.082 8.67364 84.5553 9.13934 85.1471 9.13934Z" fill="#1E1942"/>
<path d="M71.656 13.2142C71.2418 13.2142 70.8868 12.9813 70.6501 12.632C70.4726 12.3992 70.4726 12.0499 70.5317 11.7589C70.5909 11.4678 70.8276 11.235 71.0643 11.0603C71.2418 10.9439 71.4193 10.8857 71.656 10.8857C72.0702 10.8857 72.4252 11.1185 72.6619 11.4678C72.8394 11.7007 72.8394 12.0499 72.7802 12.341C72.7211 12.632 72.4844 12.8649 72.2477 13.0395C72.011 13.156 71.8335 13.2142 71.656 13.2142Z" fill="#1E1942"/>
<path d="M71.656 13.1559C72.2477 13.1559 72.721 12.6902 72.721 12.1081C72.721 11.526 72.2477 11.0603 71.656 11.0603C71.0642 11.0603 70.5909 11.526 70.5909 12.1081C70.5317 12.6902 71.0051 13.1559 71.656 13.1559Z" fill="#1E1942"/>
<path d="M68.2831 13.2142C67.8689 13.2142 67.5139 12.9813 67.2772 12.6321C66.9813 12.1082 67.1588 11.4096 67.6914 11.1185C67.8689 11.0021 68.0464 10.9439 68.2831 10.9439C68.6973 10.9439 69.0523 11.1768 69.289 11.526C69.4665 11.7589 69.4665 12.1081 69.4074 12.3992C69.3482 12.6903 69.1115 12.9231 68.8748 13.0978C68.6973 13.156 68.4606 13.2142 68.2831 13.2142Z" fill="#1E1942"/>
<path d="M68.2832 13.1559C68.8749 13.1559 69.3483 12.6902 69.3483 12.1081C69.3483 11.526 68.8749 11.0603 68.2832 11.0603C67.6915 11.0603 67.2181 11.526 67.2181 12.1081C67.2181 12.6902 67.6915 13.1559 68.2832 13.1559Z" fill="#1E1942"/>
<path d="M64.9695 13.2142C64.5553 13.2142 64.2003 12.9813 63.9636 12.632C63.7861 12.3992 63.7861 12.0499 63.8453 11.7589C63.9044 11.4678 64.1411 11.235 64.3778 11.0603C64.5553 10.9439 64.7328 10.8857 64.9695 10.8857C65.3837 10.8857 65.7387 11.1185 65.9754 11.4678C66.1529 11.7007 66.1529 12.0499 66.0938 12.341C66.0346 12.632 65.7979 12.8649 65.5612 13.0395C65.3245 13.156 65.147 13.2142 64.9695 13.2142Z" fill="#1E1942"/>
<path d="M64.9695 13.1559C65.5612 13.1559 66.0346 12.6902 66.0346 12.1081C66.0346 11.526 65.5612 11.0603 64.9695 11.0603C64.3778 11.0603 63.9044 11.526 63.9044 12.1081C63.8452 12.6902 64.3778 13.1559 64.9695 13.1559Z" fill="#1E1942"/>
<path d="M41.2417 15.8919C40.8275 15.8919 40.4725 15.6591 40.2358 15.3098C39.9399 14.7859 40.1174 14.0873 40.65 13.7963C40.8275 13.6799 41.005 13.6216 41.2417 13.6216C41.6559 13.6216 42.0109 13.8545 42.2476 14.2038C42.5435 14.7277 42.366 15.4262 41.8334 15.7173C41.5967 15.8337 41.4192 15.8919 41.2417 15.8919Z" fill="#1E1942"/>
<path d="M41.2417 15.8337C41.8334 15.8337 42.3068 15.368 42.3068 14.7859C42.3068 14.2037 41.8334 13.738 41.2417 13.738C40.65 13.738 40.1766 14.2037 40.1766 14.7859C40.1766 15.368 40.65 15.8337 41.2417 15.8337Z" fill="#1E1942"/>
<path d="M81.6559 2.79418C81.2417 2.79418 80.8866 2.56133 80.6499 2.21206C80.4724 1.97921 80.4724 1.62994 80.5316 1.33888C80.5908 1.04782 80.8275 0.81497 81.0641 0.640334C81.2417 0.52391 81.4192 0.465698 81.6559 0.465698C82.0701 0.465698 82.4251 0.698546 82.6618 1.04782C82.8393 1.28067 82.8393 1.62994 82.7801 1.921C82.721 2.21206 82.4843 2.44491 82.2476 2.61954C82.0701 2.73597 81.8334 2.79418 81.6559 2.79418Z" fill="#1E1942"/>
<path d="M81.6559 2.67779C82.2476 2.67779 82.721 2.21209 82.721 1.62997C82.721 1.04785 82.2476 0.582153 81.6559 0.582153C81.0642 0.582153 80.5908 1.04785 80.5908 1.62997C80.5908 2.21209 81.0642 2.67779 81.6559 2.67779Z" fill="#1E1942"/>
<path d="M81.6559 6.05408C81.2417 6.05408 80.8867 5.82123 80.65 5.47196C80.5316 5.23911 80.4725 4.94805 80.5316 4.65699C80.5908 4.36593 80.8275 4.13309 81.0642 3.95845C81.2417 3.84203 81.4192 3.78381 81.6559 3.78381C82.0701 3.78381 82.4251 4.01666 82.6618 4.36593C82.8393 4.59878 82.8393 4.94805 82.7802 5.23911C82.721 5.53017 82.4843 5.76302 82.2476 5.93766C82.0701 5.99587 81.8334 6.05408 81.6559 6.05408Z" fill="#1E1942"/>
<path d="M81.6559 5.99584C82.2476 5.99584 82.721 5.53015 82.721 4.94802C82.721 4.3659 82.2476 3.90021 81.6559 3.90021C81.0642 3.90021 80.5908 4.3659 80.5908 4.94802C80.5908 5.53015 81.0642 5.99584 81.6559 5.99584Z" fill="#1E1942"/>
<path d="M81.6559 9.37218C81.2417 9.37218 80.8866 9.13934 80.6499 8.79006C80.4724 8.55722 80.4724 8.20794 80.5316 7.91688C80.5908 7.62582 80.8275 7.39297 81.0641 7.21834C81.2417 7.10191 81.4192 7.0437 81.6559 7.0437C82.0701 7.0437 82.4251 7.27655 82.6618 7.62582C82.8393 7.85867 82.8393 8.20794 82.7801 8.499C82.721 8.79006 82.4843 9.02291 82.2476 9.19755C82.0701 9.31397 81.8334 9.37218 81.6559 9.37218Z" fill="#1E1942"/>
<path d="M81.6559 9.31396C82.2476 9.31396 82.721 8.84826 82.721 8.26614C82.721 7.68402 82.2476 7.21832 81.6559 7.21832C81.0642 7.21832 80.5908 7.68402 80.5908 8.26614C80.5908 8.84826 81.0642 9.31396 81.6559 9.31396Z" fill="#1E1942"/>
<path d="M81.6559 12.6902C81.2417 12.6902 80.8866 12.4574 80.6499 12.1081C80.4724 11.8753 80.4724 11.526 80.5316 11.2349C80.5908 10.9439 80.8275 10.711 81.0641 10.5364C81.2417 10.42 81.4192 10.3618 81.6559 10.3618C82.0701 10.3618 82.4251 10.5946 82.6618 10.9439C82.8393 11.1767 82.8393 11.526 82.7801 11.8171C82.721 12.1081 82.4843 12.341 82.2476 12.5156C82.0701 12.632 81.8334 12.6902 81.6559 12.6902Z" fill="#1E1942"/>
<path d="M81.6559 12.5738C82.2476 12.5738 82.721 12.1081 82.721 11.526C82.721 10.9439 82.2476 10.4782 81.6559 10.4782C81.0642 10.4782 80.5908 10.9439 80.5908 11.526C80.5908 12.1081 81.0642 12.5738 81.6559 12.5738Z" fill="#1E1942"/>
<path d="M95.147 3.02705C94.7328 3.02705 94.3777 2.7942 94.1411 2.44492C93.8452 1.92102 94.0227 1.22247 94.5553 0.931411C94.7328 0.814987 94.9103 0.756775 95.147 0.756775C95.5612 0.756775 95.9162 0.989623 96.1529 1.3389C96.4488 1.8628 96.2713 2.56135 95.7387 2.85241C95.502 2.96883 95.3245 3.02705 95.147 3.02705Z" fill="#1E1942"/>
<path d="M95.1471 2.91064C95.7388 2.91064 96.2121 2.44494 96.2121 1.86282C96.2121 1.2807 95.7388 0.815002 95.1471 0.815002C94.5553 0.815002 94.082 1.2807 94.082 1.86282C94.0228 2.44494 94.5553 2.91064 95.1471 2.91064Z" fill="#1E1942"/>
<path d="M95.3246 8.96465C94.9104 8.96465 94.5554 8.73181 94.3187 8.38253C94.1412 8.14968 94.1412 7.80041 94.2004 7.50935C94.2595 7.21829 94.4962 6.98544 94.7329 6.81081C94.9104 6.69438 95.0879 6.63617 95.3246 6.63617C95.7388 6.63617 96.0938 6.86902 96.3305 7.21829C96.6264 7.7422 96.4489 8.44074 95.9163 8.73181C95.7388 8.90644 95.5613 8.96465 95.3246 8.96465Z" fill="#1E1942"/>
<path d="M95.3246 8.90649C95.9163 8.90649 96.3896 8.44079 96.3896 7.85867C96.3896 7.27655 95.9163 6.81085 95.3246 6.81085C94.7328 6.81085 94.2595 7.27655 94.2595 7.85867C94.2595 8.44079 94.7328 8.90649 95.3246 8.90649Z" fill="#1E1942"/>
<path d="M96.5672 6.05408C96.153 6.05408 95.798 5.82123 95.5613 5.47196C95.2654 4.94805 95.4429 4.24951 95.9755 3.95845C96.153 3.84203 96.3305 3.78381 96.5672 3.78381C96.9814 3.78381 97.3364 4.01666 97.5731 4.36593C97.869 4.88984 97.6915 5.58839 97.1589 5.87945C96.9814 5.99587 96.8039 6.05408 96.5672 6.05408Z" fill="#1E1942"/>
<path d="M96.5672 5.99584C97.1589 5.99584 97.6322 5.53015 97.6322 4.94802C97.6322 4.3659 97.1589 3.90021 96.5672 3.90021C95.9754 3.90021 95.5021 4.3659 95.5021 4.94802C95.5021 5.47193 95.9754 5.99584 96.5672 5.99584Z" fill="#1E1942"/>
<path d="M91.8334 2.67779C91.4192 2.67779 91.0642 2.44494 90.8275 2.09567C90.65 1.86282 90.65 1.51355 90.7092 1.22248C90.7683 0.931425 91.005 0.698577 91.2417 0.52394C91.4192 0.407516 91.5967 0.349304 91.8334 0.349304C92.2476 0.349304 92.6026 0.582152 92.8393 0.931425C93.0168 1.16427 93.0168 1.51355 92.9577 1.80461C92.8985 2.09567 92.6618 2.32851 92.4251 2.50315C92.2476 2.67779 92.0701 2.67779 91.8334 2.67779Z" fill="#1E1942"/>
<path d="M91.8335 2.61956C92.4252 2.61956 92.8985 2.15386 92.8985 1.57174C92.8985 0.989622 92.4252 0.523926 91.8335 0.523926C91.2417 0.523926 90.7684 0.989622 90.7684 1.57174C90.7684 2.15386 91.2417 2.61956 91.8335 2.61956Z" fill="#1E1942"/>
<path d="M88.5199 2.67779C88.1057 2.67779 87.7506 2.44494 87.514 2.09567C87.3364 1.86282 87.3364 1.51355 87.3956 1.22248C87.4548 0.931425 87.6915 0.698577 87.9282 0.52394C88.1057 0.407516 88.2832 0.349304 88.5199 0.349304C88.9341 0.349304 89.2891 0.582152 89.5258 0.931425C89.7033 1.16427 89.7033 1.51355 89.6441 1.80461C89.585 2.09567 89.3483 2.32851 89.1116 2.50315C88.9341 2.67779 88.6974 2.67779 88.5199 2.67779Z" fill="#1E1942"/>
<path d="M88.5198 2.61956C89.1115 2.61956 89.5849 2.15386 89.5849 1.57174C89.5849 0.989622 89.1115 0.523926 88.5198 0.523926C87.9281 0.523926 87.4547 0.989622 87.4547 1.57174C87.4547 2.15386 87.9281 2.61956 88.5198 2.61956Z" fill="#1E1942"/>
<path d="M85.1471 2.67779C84.7329 2.67779 84.3779 2.44494 84.1412 2.09567C83.9636 1.86282 83.9636 1.51355 84.0228 1.22248C84.082 0.931425 84.3187 0.698577 84.5554 0.52394C84.7329 0.407516 84.9104 0.349304 85.1471 0.349304C85.5613 0.349304 85.9163 0.582152 86.153 0.931425C86.3305 1.16427 86.3305 1.51355 86.2713 1.80461C86.2122 2.09567 85.9755 2.32851 85.7388 2.50315C85.5613 2.67779 85.3838 2.67779 85.1471 2.67779Z" fill="#1E1942"/>
<path d="M85.1471 2.61956C85.7388 2.61956 86.2122 2.15386 86.2122 1.57174C86.2122 0.989622 85.7388 0.523926 85.1471 0.523926C84.5553 0.523926 84.082 0.989622 84.082 1.57174C84.082 2.15386 84.5553 2.61956 85.1471 2.61956Z" fill="#1E1942"/>
<path d="M81.6559 15.9501C81.2417 15.9501 80.8867 15.7173 80.65 15.368C80.3542 14.8441 80.5317 14.1456 81.0642 13.8545C81.2417 13.7381 81.4193 13.6799 81.6559 13.6799C82.0701 13.6799 82.4252 13.9127 82.6619 14.262C82.8394 14.4948 82.8394 14.8441 82.7802 15.1352C82.721 15.4262 82.4843 15.6591 82.2477 15.8337C82.0701 15.8919 81.8335 15.9501 81.6559 15.9501Z" fill="#1E1942"/>
<path d="M81.6559 15.8919C82.2476 15.8919 82.721 15.4262 82.721 14.8441C82.721 14.262 82.2476 13.7963 81.6559 13.7963C81.0642 13.7963 80.5908 14.262 80.5908 14.8441C80.5908 15.4262 81.0642 15.8919 81.6559 15.8919Z" fill="#1E1942"/>
<path d="M94.0228 12.6902C93.6086 12.6902 93.2535 12.4574 93.0168 12.1081C92.8393 11.8753 92.8393 11.526 92.8985 11.2349C92.9577 10.9439 93.1943 10.711 93.431 10.5364C93.6086 10.42 93.7861 10.3618 94.0228 10.3618C94.437 10.3618 94.792 10.5946 95.0287 10.9439C95.3245 11.4678 95.147 12.1663 94.6145 12.4574C94.437 12.632 94.2594 12.6902 94.0228 12.6902Z" fill="#1E1942"/>
<path d="M94.0228 12.5738C94.6145 12.5738 95.0879 12.1081 95.0879 11.526C95.0879 10.9439 94.6145 10.4782 94.0228 10.4782C93.4311 10.4782 92.9577 10.9439 92.9577 11.526C92.9577 12.1081 93.4311 12.5738 94.0228 12.5738Z" fill="#1E1942"/>
<path d="M96.5672 15.9501C96.153 15.9501 95.798 15.7173 95.5613 15.368C95.2654 14.8441 95.4429 14.1456 95.9755 13.8545C96.153 13.7381 96.3305 13.6799 96.5672 13.6799C96.9814 13.6799 97.3364 13.9127 97.5731 14.262C97.869 14.7859 97.6915 15.4844 97.1589 15.7755C96.9814 15.8919 96.8039 15.9501 96.5672 15.9501Z" fill="#1E1942"/>
<path d="M96.5672 15.8919C97.1589 15.8919 97.6322 15.4262 97.6322 14.8441C97.6322 14.262 97.1589 13.7963 96.5672 13.7963C95.9754 13.7963 95.5021 14.262 95.5021 14.8441C95.5021 15.4262 95.9754 15.8919 96.5672 15.8919Z" fill="#1E1942"/>
<path d="M124.319 4.71517C123.668 4.71517 123.194 4.19126 123.194 3.60914C123.194 3.02702 123.727 2.50311 124.319 2.50311C124.969 2.50311 125.443 3.02702 125.443 3.60914C125.443 4.19126 124.969 4.71517 124.319 4.71517Z" fill="#1E1942"/>
<path d="M124.319 4.65698C124.91 4.65698 125.384 4.19128 125.384 3.60916C125.384 3.02704 124.91 2.56134 124.319 2.56134C123.727 2.56134 123.254 3.02704 123.254 3.60916C123.254 4.19128 123.727 4.65698 124.319 4.65698Z" fill="#1E1942"/>
<path d="M122.425 11.2349C121.774 11.2349 121.301 10.711 121.301 10.1289C121.301 9.48858 121.834 9.02289 122.425 9.02289C123.076 9.02289 123.549 9.5468 123.549 10.1289C123.549 10.711 123.076 11.2349 122.425 11.2349Z" fill="#1E1942"/>
<path d="M122.425 11.1185C123.017 11.1185 123.49 10.6528 123.49 10.0707C123.49 9.48858 123.017 9.02289 122.425 9.02289C121.833 9.02289 121.36 9.48858 121.36 10.0707C121.36 10.6528 121.833 11.1185 122.425 11.1185Z" fill="#1E1942"/>
<path d="M122.425 7.68398C121.774 7.68398 121.301 7.16007 121.301 6.57795C121.301 5.99583 121.834 5.47192 122.425 5.47192C123.076 5.47192 123.549 5.99583 123.549 6.57795C123.549 7.16007 123.076 7.68398 122.425 7.68398Z" fill="#1E1942"/>
<path d="M122.425 7.62579C123.017 7.62579 123.49 7.16009 123.49 6.57797C123.49 5.99585 123.017 5.53015 122.425 5.53015C121.833 5.53015 121.36 5.99585 121.36 6.57797C121.36 7.16009 121.833 7.62579 122.425 7.62579Z" fill="#1E1942"/>
<path d="M139.526 11.2349C138.875 11.2349 138.401 10.711 138.401 10.1289C138.401 9.48858 138.934 9.02289 139.526 9.02289C140.177 9.02289 140.65 9.5468 140.65 10.1289C140.65 10.711 140.177 11.2349 139.526 11.2349Z" fill="#1E1942"/>
<path d="M139.526 11.1185C140.117 11.1185 140.591 10.6528 140.591 10.0707C140.591 9.48858 140.117 9.02289 139.526 9.02289C138.934 9.02289 138.461 9.48858 138.461 10.0707C138.461 10.6528 138.934 11.1185 139.526 11.1185Z" fill="#1E1942"/>
<path d="M139.526 7.68398C138.875 7.68398 138.401 7.16007 138.401 6.57795C138.401 5.99583 138.934 5.47192 139.526 5.47192C140.177 5.47192 140.65 5.99583 140.65 6.57795C140.65 7.21829 140.177 7.68398 139.526 7.68398Z" fill="#1E1942"/>
<path d="M139.526 7.62579C140.117 7.62579 140.591 7.16009 140.591 6.57797C140.591 5.99585 140.117 5.53015 139.526 5.53015C138.934 5.53015 138.461 5.99585 138.461 6.57797C138.461 7.16009 138.934 7.62579 139.526 7.62579Z" fill="#1E1942"/>
<path d="M127.692 2.96883C127.041 2.96883 126.567 2.44492 126.567 1.8628C126.567 1.22247 127.1 0.756775 127.692 0.756775C128.342 0.756775 128.816 1.28068 128.816 1.8628C128.816 2.44492 128.283 2.96883 127.692 2.96883Z" fill="#1E1942"/>
<path d="M127.691 2.91064C128.283 2.91064 128.757 2.44494 128.757 1.86282C128.757 1.2807 128.283 0.815002 127.691 0.815002C127.1 0.815002 126.626 1.2807 126.626 1.86282C126.567 2.44494 127.1 2.91064 127.691 2.91064Z" fill="#1E1942"/>
<path d="M137.691 4.88984C137.277 4.88984 136.922 4.65699 136.685 4.30772C136.39 3.78381 136.567 3.08526 137.1 2.7942C137.277 2.67778 137.455 2.61957 137.691 2.61957C138.106 2.61957 138.461 2.85242 138.697 3.20169C138.875 3.43454 138.875 3.78381 138.816 4.07487C138.757 4.36593 138.52 4.59878 138.283 4.77341C138.106 4.83163 137.928 4.88984 137.691 4.88984Z" fill="#1E1942"/>
<path d="M137.691 4.8316C138.283 4.8316 138.757 4.3659 138.757 3.78378C138.757 3.20166 138.283 2.73596 137.691 2.73596C137.1 2.73596 136.626 3.20166 136.626 3.78378C136.626 4.3659 137.1 4.8316 137.691 4.8316Z" fill="#1E1942"/>
<path d="M134.733 3.20167C134.437 3.20167 134.2 3.08524 134.023 2.91061C133.549 2.50312 133.49 1.80458 133.904 1.33888C134.141 1.10603 134.437 0.931396 134.792 0.931396C135.088 0.931396 135.325 1.04782 135.502 1.22246C135.739 1.39709 135.857 1.68815 135.916 1.97921C135.916 2.27027 135.857 2.56133 135.68 2.79418C135.443 3.02703 135.088 3.20167 134.733 3.20167Z" fill="#1E1942"/>
<path d="M134.733 3.14349C135.325 3.14349 135.798 2.67779 135.798 2.09567C135.798 1.51355 135.325 1.04785 134.733 1.04785C134.141 1.04785 133.668 1.51355 133.668 2.09567C133.668 2.67779 134.141 3.14349 134.733 3.14349Z" fill="#1E1942"/>
<path d="M131.36 2.56135C131.242 2.56135 131.123 2.56135 130.946 2.50314C130.354 2.27029 130.058 1.62995 130.236 1.04783C130.413 0.582137 130.828 0.291077 131.301 0.291077C131.419 0.291077 131.538 0.291077 131.715 0.349289C132.011 0.465713 132.248 0.640349 132.366 0.931409C132.484 1.22247 132.484 1.51353 132.425 1.80459C132.307 2.27029 131.833 2.56135 131.36 2.56135Z" fill="#1E1942"/>
<path d="M131.36 2.5031C131.952 2.5031 132.425 2.03741 132.425 1.45529C132.425 0.873167 131.952 0.407471 131.36 0.407471C130.768 0.407471 130.295 0.873167 130.295 1.45529C130.295 2.03741 130.768 2.5031 131.36 2.5031Z" fill="#1E1942"/>
<path d="M124.319 14.2038C123.668 14.2038 123.194 13.6798 123.194 13.0977C123.194 12.4574 123.727 11.9917 124.319 11.9917C124.969 11.9917 125.443 12.5156 125.443 13.0977C125.443 13.6798 124.969 14.2038 124.319 14.2038Z" fill="#1E1942"/>
<path d="M124.319 14.1456C124.91 14.1456 125.384 13.6799 125.384 13.0977C125.384 12.5156 124.91 12.0499 124.319 12.0499C123.727 12.0499 123.254 12.5156 123.254 13.0977C123.254 13.6217 123.727 14.1456 124.319 14.1456Z" fill="#1E1942"/>
<path d="M127.692 15.8337C128.342 15.8337 128.816 15.3098 128.816 14.7277C128.816 14.1456 128.283 13.6216 127.692 13.6216C127.041 13.6216 126.567 14.1456 126.567 14.7277C126.567 15.3098 127.041 15.8337 127.692 15.8337Z" fill="#1E1942"/>
<path d="M127.691 15.7755C128.283 15.7755 128.757 15.3098 128.757 14.7277C128.757 14.1456 128.283 13.6799 127.691 13.6799C127.1 13.6799 126.626 14.1456 126.626 14.7277C126.567 15.3098 127.1 15.7755 127.691 15.7755Z" fill="#1E1942"/>
<path d="M137.691 14.0291C137.514 14.0291 137.277 13.9709 137.1 13.8545C136.567 13.5634 136.39 12.8649 136.685 12.341C136.863 11.9917 137.277 11.7589 137.691 11.7589C137.869 11.7589 138.106 11.8171 138.283 11.9335C138.52 12.1081 138.757 12.341 138.816 12.632C138.875 12.9231 138.875 13.2142 138.697 13.5052C138.52 13.7963 138.106 14.0291 137.691 14.0291Z" fill="#1E1942"/>
<path d="M137.691 13.9709C138.283 13.9709 138.757 13.5052 138.757 12.9231C138.757 12.341 138.283 11.8753 137.691 11.8753C137.1 11.8753 136.626 12.341 136.626 12.9231C136.626 13.5052 137.1 13.9709 137.691 13.9709Z" fill="#1E1942"/>
<path d="M134.733 15.7173C134.378 15.7173 134.082 15.5427 133.845 15.3098C133.431 14.8441 133.49 14.1456 133.964 13.7381C134.141 13.5634 134.437 13.447 134.674 13.447C135.029 13.447 135.325 13.6217 135.561 13.8545C135.739 14.0874 135.857 14.3784 135.798 14.6695C135.798 14.9605 135.62 15.2516 135.384 15.4262C135.265 15.6591 135.029 15.7173 134.733 15.7173Z" fill="#1E1942"/>
<path d="M134.733 15.659C135.325 15.659 135.798 15.1934 135.798 14.6112C135.798 14.0291 135.325 13.5634 134.733 13.5634C134.141 13.5634 133.668 14.0291 133.668 14.6112C133.668 15.1934 134.141 15.659 134.733 15.659Z" fill="#1E1942"/>
<path d="M131.36 16.2994C130.887 16.2994 130.472 16.0083 130.295 15.5426C130.058 14.9605 130.413 14.3202 131.005 14.0873C131.123 14.0291 131.242 14.0291 131.419 14.0291C131.893 14.0291 132.307 14.3202 132.484 14.7859C132.721 15.368 132.366 16.0083 131.774 16.2412C131.656 16.2994 131.538 16.2994 131.36 16.2994Z" fill="#1E1942"/>
<path d="M131.36 16.2412C131.952 16.2412 132.425 15.7755 132.425 15.1934C132.425 14.6113 131.952 14.1456 131.36 14.1456C130.768 14.1456 130.295 14.6113 130.295 15.1934C130.295 15.7755 130.768 16.2412 131.36 16.2412Z" fill="#1E1942"/>
</g>
<defs>
<clipPath id="clip0_11954_7116">
<rect width="140" height="28" fill="white" transform="translate(0.650024)"/>
</clipPath>
</defs>
</svg>
