<svg width="128" height="30" viewBox="0 0 128 30" fill="none" xmlns="http://www.w3.org/2000/svg">
<g clip-path="url(#clip0_11954_7112)">
<path d="M16.758 0.550584L26.4009 5.96179C27.7465 6.71688 28.5786 8.1331 28.5786 9.66822V20.3318C28.5786 21.8669 27.7465 23.2831 26.4009 24.0382L16.758 29.4494C15.4498 30.1835 13.8502 30.1835 12.5419 29.4494L2.89913 24.0382C1.55355 23.2831 0.721466 21.8669 0.721466 20.3318V9.66822C0.721466 8.1331 1.55355 6.71688 2.89913 5.96179L12.5419 0.550584C13.8502 -0.183528 15.4498 -0.183528 16.758 0.550584ZM2.32861 9.71139V20.3318C2.32861 21.2848 2.8461 22.1656 3.68563 22.6367L13.1915 27.971C13.3146 28.0187 13.4458 28.0434 13.5786 28.0434C14.1703 28.0434 14.65 27.5637 14.65 26.972V18.3878C14.65 16.9888 13.8713 15.7061 12.6301 15.0607L11.9225 14.6928C11.7556 14.6217 11.5908 14.5439 11.4286 14.4592L2.32861 9.71139ZM12.298 13.5093C14.006 14.4004 15.2986 14.4004 17.0066 13.5093L26.2384 8.32656C26.0111 7.80604 25.6168 7.3619 25.101 7.07243L15.9716 1.95213C15.1519 1.49215 14.1481 1.49215 13.3284 1.95213L4.21639 7.07243C3.70054 7.3619 3.30629 7.80604 3.07895 8.32656L12.298 13.5093ZM14.65 3.75C16.6589 3.75 18.2989 4.73732 18.3955 5.97794L18.4 8.10268C18.4 9.3971 16.7211 10.4464 14.65 10.4464C12.5789 10.4464 10.9 9.3971 10.9 8.10268V5.97794C11.0011 4.73732 12.6411 3.75 14.65 3.75ZM14.6504 7.5C16.3901 7.5 17.8004 6.79485 17.8004 5.925C17.8004 5.05515 16.3901 4.35 14.6504 4.35C12.9107 4.35 11.5004 5.05515 11.5004 5.925C11.5004 6.79485 12.9107 7.5 14.6504 7.5Z" fill="#1E1942"/>
<path fill-rule="evenodd" clip-rule="evenodd" d="M43.3512 15.8053C43.3512 17.0069 43.6602 17.9725 44.2782 18.702C44.8961 19.4316 45.7115 19.7963 46.7243 19.7963C47.7027 19.7963 48.5009 19.4273 49.1189 18.6892C49.7369 17.951 50.0459 16.9812 50.0459 15.7796C50.0459 14.5951 49.7454 13.651 49.1446 12.9472C48.5438 12.2434 47.7457 11.8915 46.75 11.8915C45.7544 11.8915 44.9391 12.2477 44.3039 12.9601C43.6688 13.6725 43.3512 14.6209 43.3512 15.8053ZM52.9296 3.47172V22.1137H51.2421C50.7952 22.1137 50.3862 21.863 50.1833 21.4649C50.0745 21.2514 50.0201 21.0438 50.0201 20.8421C49.6735 21.2383 49.3979 21.571 48.7456 21.9315C48.0932 22.292 47.2306 22.4227 46.3895 22.4227C44.6042 22.4227 43.1538 21.7962 42.038 20.5431C40.9223 19.2899 40.3643 17.7107 40.3643 15.8053C40.3643 13.9686 40.9265 12.4151 42.0508 11.1448C43.1753 9.87454 44.6043 9.23941 46.3381 9.23941C47.3337 9.23941 48.1362 9.41965 48.7456 9.78013C49.3549 10.1406 49.7797 10.5612 50.0201 11.0418V3.47172H52.9296ZM63.5876 9.41965V12.458H63.2034C60.9547 12.458 59.8302 13.6853 59.8302 16.14V22.1137H56.8435V9.57414H58.7805C59.1241 9.57414 59.4286 9.79566 59.5343 10.1226L59.8302 11.0379C59.9728 10.7408 60.3691 10.0812 61.0623 9.75042C61.7555 9.41965 62.5597 9.41965 63.3836 9.41965H63.5876ZM65.2612 18.7149C65.2612 17.6506 65.6089 16.7966 66.3041 16.1529C66.9993 15.5092 67.9134 15.1015 69.0464 14.9299L72.2649 14.4406C72.8829 14.3548 73.1919 14.0544 73.1919 13.5394C73.1919 12.973 72.9944 12.5138 72.5997 12.1619C72.2049 11.81 71.6125 11.634 70.8229 11.634C70.0676 11.634 69.4669 11.8443 69.0205 12.2649C68.5742 12.6854 68.3167 13.2304 68.2481 13.8999L65.5564 13.8742C65.6766 12.7412 66.1796 11.1834 67.1409 10.3852C68.1021 9.58701 69.321 9.18791 70.7973 9.18791C72.6168 9.18791 73.96 9.62563 74.8269 10.5011C75.6938 11.3765 76.1271 12.5009 76.1271 13.8742V20.1053C76.1271 20.9293 76.1786 21.5987 76.2817 22.1137H74.6755C74.5057 22.1137 74.3375 22.0825 74.179 22.0218C73.6464 21.8175 73.3799 21.485 73.3799 21.0244C72.7858 22.0147 71.2607 22.4999 69.5098 22.4999C68.2396 22.4999 67.2139 22.1266 66.4328 21.3799C65.6518 20.6332 65.2612 19.7448 65.2612 18.7149ZM70.0763 20.1568C71.0033 20.1568 71.7542 19.9036 72.3293 19.3972C72.9044 18.8908 73.1919 18.0626 73.1919 16.9125V16.346L69.9217 16.8353C68.8059 17.0241 68.2481 17.5905 68.2481 18.5347C68.2481 18.981 68.4112 19.3629 68.7374 19.6805C69.0635 19.998 69.5098 20.1568 70.0763 20.1568ZM85.2937 6.41697C84.7959 6.41697 84.3624 6.55858 83.9934 6.84182C83.6244 7.12505 83.4398 7.61856 83.4398 8.32236V9.57414H86.3494V12.1748H83.4398V22.1137H80.4272V12.1748H78.2386V9.57414H79.0981C79.8321 9.57414 80.4272 8.97912 80.4272 8.24512C80.4272 6.85468 80.8305 5.75609 81.6373 4.94929C82.4441 4.1425 83.4999 3.73911 84.8045 3.73911H86.3494V6.41697H85.2937ZM93.3768 5.7891V9.62564H95.9774V12.2777H93.3768V18.0969C93.3768 18.6462 93.5056 19.0453 93.763 19.2942C94.0205 19.5431 94.4238 19.6676 94.9731 19.6676H95.3832V22.3197H94.175C93.0077 22.3197 92.0893 21.9893 91.4198 21.3284C90.7505 20.6675 90.4157 19.7534 90.4157 18.5862V12.2777H88.0982V9.62564H88.7421C89.3772 9.62564 89.8577 9.4454 90.1839 9.08492C90.51 8.72444 90.6732 8.25238 90.6732 7.66874V5.7891H93.3768ZM98.3978 3.4123H101.307V11.0854C101.548 10.6047 102.047 10.2099 102.656 9.84945C103.266 9.48897 104.235 9.25525 105.231 9.25525C106.965 9.25525 108.35 9.81512 109.475 11.0854C110.599 12.3557 110.975 13.9547 110.975 15.7914C110.975 17.6969 110.603 19.2305 109.487 20.4836C108.372 21.7367 106.818 22.4267 105.033 22.4267C104.192 22.4267 103.432 22.2326 102.78 21.8721C102.128 21.5116 101.654 21.1788 101.307 20.7827C101.307 20.9844 101.253 21.192 101.144 21.4055C100.941 21.8036 100.532 22.0543 100.085 22.0543H98.3978V3.4123ZM107.043 18.7149C107.678 17.9939 107.996 17.0241 107.996 15.8053C107.996 14.5865 107.687 13.6296 107.069 12.9343C106.451 12.2391 105.636 11.8915 104.623 11.8915C103.644 11.8915 102.838 12.2391 102.203 12.9343C101.567 13.6296 101.25 14.5865 101.25 15.8053C101.25 17.0069 101.567 17.9682 102.203 18.6892C102.838 19.4101 103.644 19.7706 104.623 19.7706C105.619 19.7706 106.425 19.4187 107.043 18.7149ZM113.892 12.5233H112.658V9.55235H115.629V9.57414H116.854V22.1137H113.892V12.5233ZM113.995 6.5358C113.618 6.15816 113.429 5.70327 113.429 5.17113C113.429 4.63899 113.618 4.17981 113.995 3.79358C114.373 3.40735 114.828 3.21423 115.36 3.21423C115.909 3.21423 116.373 3.40305 116.751 3.7807C117.128 4.15835 117.317 4.62182 117.317 5.17113C117.317 5.70327 117.128 6.15816 116.751 6.5358C116.373 6.91345 115.909 7.10227 115.36 7.10227C114.828 7.10227 114.373 6.91345 113.995 6.5358ZM124.501 5.7376V9.57414H127.101V12.2262H124.501V18.0454C124.501 18.5947 124.63 18.9938 124.887 19.2427C125.145 19.4917 125.548 19.6161 126.097 19.6161H126.507V22.2682H125.299C124.132 22.2682 123.213 21.9378 122.544 21.2769C121.874 20.616 121.54 19.7019 121.54 18.5347V12.2262H119.222V9.57414H119.866C120.501 9.57414 120.982 9.3939 121.308 9.03342C121.634 8.67294 121.797 8.20088 121.797 7.61725V5.7376H124.501Z" fill="#1E1942"/>
</g>
<defs>
<clipPath id="clip0_11954_7112">
<rect width="127" height="30" fill="white" transform="translate(0.650024)"/>
</clipPath>
</defs>
</svg>
