<svg width="119" height="32" viewBox="0 0 119 32" fill="none" xmlns="http://www.w3.org/2000/svg">
<path fill-rule="evenodd" clip-rule="evenodd" d="M118.705 5.74658L114.021 6.60731L112.397 9.3546H115.898C116.233 9.3546 116.543 9.18366 116.72 8.90253L118.705 5.74658Z" fill="#1E1942"/>
<path d="M106.888 19.1716C110.674 19.1716 113.272 16.9341 113.272 14.2211C113.272 13.0464 112.792 11.9836 111.945 11.1445L111.549 10.7809C110.419 9.91391 108.866 9.35449 106.973 9.35449C103.216 9.35449 100.617 11.592 100.617 14.305C100.617 16.123 101.775 17.7172 103.696 18.5563L100.052 22.7517C100.842 23.2831 102.905 24.6256 104.148 25.1011C101.718 25.5765 99.5996 26.6673 99.5996 28.3455C99.5996 29.9117 101.323 31.2262 104.572 31.2262C110.758 31.2262 115.419 28.0378 115.419 24.7654C115.419 23.0593 114.543 21.9126 110.589 21.577L103.018 20.9617L104.741 18.9199C105.391 19.0877 106.125 19.1716 106.888 19.1716ZM107.736 18.2207C105.758 18.2207 104.628 15.5916 104.628 12.9625C104.628 11.0326 105.334 10.2495 106.266 10.2495C108.216 10.2495 109.346 12.8786 109.346 15.5356C109.346 17.4375 108.64 18.2207 107.736 18.2207ZM106.125 29.8838C103.47 29.8838 102.566 28.765 102.566 27.5344C102.566 26.4436 103.611 25.2409 106.945 25.2409C110.137 25.2409 111.973 25.6325 111.973 26.947C111.973 28.5412 108.922 29.8838 106.125 29.8838Z" fill="#1E1942"/>
<path fill-rule="evenodd" clip-rule="evenodd" d="M22.8814 24.3067H23.8957L27.534 16.2225L31.1486 24.3067H32.1706L37.4545 12.5476C37.9911 11.3729 38.4368 10.9935 39.4538 10.8816L40.0186 10.8257V9.93066H34.3969V10.8257L35.188 10.9096C36.1769 11.0215 36.6948 11.4973 36.0453 13.0076L33.3518 18.9926L30.6947 13.1874C30.292 12.2596 30.173 11.2795 31.7982 10.796V9.93066H15.4517V10.8257L15.9034 10.8816C16.8923 10.9935 17.1182 11.3851 17.5705 12.4199L22.8814 24.3067ZM25.1033 10.7605C25.1033 10.7605 24.7375 10.7386 24.0637 10.7605C23.0462 10.7936 21.4683 11.3864 22.2826 13.0817L25.0185 19.1857L26.9324 14.8865L25.1033 10.7605Z" fill="#1E1942"/>
<path d="M74.2944 4.2349C74.2944 5.5441 75.458 6.69615 76.7538 6.69615C78.076 6.69615 79.2395 5.5441 79.2395 4.2349C79.2395 2.95189 78.076 1.7998 76.7538 1.7998C75.458 1.7998 74.2944 2.95189 74.2944 4.2349Z" fill="#1E1942"/>
<path d="M73.1569 23.9259H81.1233V23.0309L80.3602 22.9749C79.3713 22.891 79.2303 22.863 79.2303 21.8561V9.39844L72.9023 10.527V10.6948L74.4813 12.012C74.8416 12.3125 75.0493 12.755 75.0493 13.2213V21.8561C75.0493 22.863 74.9083 22.891 73.9194 22.9749L73.1569 23.0309V23.9259Z" fill="#1E1942"/>
<path d="M54.4713 23.0312V23.9262H71.5963V23.0312L70.8338 22.9752C69.8449 22.8913 69.7039 22.8633 69.7039 21.8564V1.7998L63.3759 2.93788V3.10569L64.9543 4.42188C65.3146 4.72232 65.5229 5.16495 65.5229 5.63137V21.8564C65.5229 22.8633 65.3819 22.8913 64.3929 22.9752C63.9599 23.012 62.1237 23.0133 61.6747 22.9752C60.6858 22.8913 60.5447 22.8633 60.5447 21.8564V1.7998L54.2168 2.93788V3.10569L55.7957 4.42188C56.1561 4.72232 56.3638 5.16495 56.3638 5.63137V21.8564C56.3638 22.8633 56.2227 22.8913 55.2338 22.9752L54.4713 23.0312Z" fill="#1E1942"/>
<path fill-rule="evenodd" clip-rule="evenodd" d="M54.1561 18.1647C53.5065 22.2482 50.8511 24.29 46.8392 24.29C42.1784 24.29 39.3813 21.0735 39.3813 16.9341C39.3813 12.2912 43.0825 9.35449 46.7549 9.35449C50.3139 9.35449 52.8851 11.2564 53.6476 15.0881H43.6191C43.6472 18.7521 45.625 21.6049 48.8452 21.6049C50.7095 21.6049 52.7716 20.5421 53.3369 18.1647H54.1561ZM49.4021 12.6648C49.4021 11.6892 48.6672 10.307 46.9715 10.307C45.2476 10.307 43.9193 11.5808 43.6648 14.2096H47.0849C48.8655 14.2096 49.4021 13.776 49.4021 12.6648Z" fill="#1E1942"/>
<path fill-rule="evenodd" clip-rule="evenodd" d="M9.6595 22.5653C8.75957 23.5676 7.35349 24.2915 5.86302 24.2915C2.74153 24.2915 0.0136719 21.6743 0.0136719 16.8297C0.0136719 12.4027 2.91022 9.42352 6.48171 9.42352C7.69094 9.42352 8.90022 9.95256 9.6595 10.76V5.65263C9.6595 5.18523 9.45065 4.74183 9.08902 4.44139L7.48379 3.10775V2.94067L13.8213 1.80371V22.0919H15.8746V22.9829L9.6595 24.2358V22.5653ZM8.11278 11.0106C6.14427 11.0106 4.65379 13.1545 4.65379 16.8018C4.65379 20.1151 6.11611 22.3704 8.02843 22.3704C8.56272 22.3704 9.12516 22.259 9.6595 21.8135V11.5396C9.20956 11.1498 8.64712 11.0106 8.11278 11.0106Z" fill="#1E1942"/>
<path d="M90.2163 23.9264H82.5607V23.0314L83.3232 22.9754C84.3121 22.8915 84.4537 22.8635 84.4537 21.8566V13.2218C84.4537 12.7555 84.2454 12.313 83.8857 12.0125L82.3062 10.6953V10.5275L88.6341 9.39895V12.7108C89.2561 10.669 90.6681 9.35449 92.928 9.35449C95.2166 9.35449 96.9398 10.5572 96.9398 14.5847V21.8566C96.9398 22.8635 97.0809 22.8915 98.0698 22.9754L98.8323 23.0314V23.9264H91.1766V23.0314L91.7138 22.9754L91.7325 22.9733C92.7032 22.8635 92.7589 22.8572 92.7589 21.8566V15.3679C92.7589 12.4591 91.9677 11.8157 90.8378 11.8157C89.7078 11.8157 88.6341 12.487 88.6341 15.3958V21.8566C88.6341 22.8572 88.6903 22.8635 89.661 22.9733L89.6797 22.9754L90.2163 23.0314V23.9264Z" fill="#1E1942"/>
</svg>
