<svg width="60" height="24" viewBox="0 0 60 24" fill="none" xmlns="http://www.w3.org/2000/svg">
<path d="M14.6635 4H4.60031V9.58678H13.3217V13.5868H4.60031V23.6033H0V1.91736C0 1.34435 0.19168 0.881543 0.575039 0.528927C0.958399 0.176309 1.4163 0 1.94874 0H14.6635V4Z" fill="#1E1942"/>
<path d="M22.6017 6.64453C24.7528 6.64453 26.4673 7.25059 27.7451 8.46271C29.023 9.65279 29.6619 11.3387 29.6619 13.5206V23.6032H25.8283V21.4544C24.6144 23.1514 22.8893 23.9999 20.653 23.9999C19.0131 23.9999 17.682 23.5371 16.6597 22.6115C15.6587 21.6638 15.1582 20.4186 15.1582 18.8759C15.1582 16.9806 15.8929 15.6032 17.3625 14.7437C18.832 13.8622 20.6956 13.4214 22.9531 13.4214C23.9115 13.4214 24.8167 13.4875 25.6686 13.6197V13.3883C25.6686 12.3525 25.3598 11.5701 24.7422 11.0412C24.1245 10.4903 23.3046 10.2148 22.2823 10.2148C20.621 10.2148 19.0024 10.8429 17.4264 12.0991L15.5735 9.28916C17.3838 7.52607 19.7265 6.64453 22.6017 6.64453ZM21.7072 20.6611C22.8573 20.6611 23.7838 20.2533 24.4866 19.4379C25.1894 18.6225 25.5834 17.5646 25.6686 16.2644C24.838 16.1982 24.0393 16.1652 23.2726 16.1652C20.7382 16.1652 19.471 16.9696 19.471 18.5784C19.471 19.1955 19.6733 19.7024 20.078 20.0991C20.4826 20.4737 21.0257 20.6611 21.7072 20.6611Z" fill="#1E1942"/>
<path d="M38.736 23.9668C35.9673 23.9668 33.7417 23.1294 32.0592 21.4544L33.7843 18.6115C35.339 19.9117 36.9257 20.5619 38.5443 20.5619C39.2472 20.5619 39.8329 20.4186 40.3014 20.1321C40.7913 19.8456 41.0362 19.4489 41.0362 18.942C41.0362 18.7657 41.0042 18.6005 40.9403 18.4462C40.8765 18.2919 40.77 18.1487 40.6209 18.0164C40.4931 17.8842 40.3653 17.774 40.2375 17.6858C40.1097 17.5977 39.9181 17.4985 39.6625 17.3883C39.4069 17.2781 39.1939 17.201 39.0235 17.1569C38.8745 17.0908 38.6295 17.0027 38.2888 16.8925C37.9693 16.7823 37.735 16.7051 37.586 16.6611C36.0951 16.1321 34.945 15.5151 34.1357 14.8098C33.3477 14.1046 32.9537 13.1128 32.9537 11.8346C32.9537 10.2038 33.55 8.93654 34.7427 8.03296C35.9567 7.10734 37.5114 6.64453 39.4069 6.64453C41.7071 6.64453 43.7091 7.28365 45.4129 8.56188L43.7517 11.3718C42.2821 10.4462 40.8978 9.98337 39.5986 9.98337C38.8958 9.98337 38.3314 10.1266 37.9054 10.4131C37.4795 10.6776 37.2665 11.0302 37.2665 11.471C37.2665 11.8236 37.4262 12.1432 37.7457 12.4297C38.0652 12.6941 38.3527 12.8814 38.6082 12.9916C38.8851 13.0798 39.375 13.2451 40.0778 13.4875C40.8019 13.7299 41.3344 13.9173 41.6751 14.0495C42.0372 14.1817 42.5164 14.4131 43.1127 14.7437C43.7091 15.0522 44.1457 15.3718 44.4225 15.7024C44.7207 16.0109 44.9869 16.4297 45.2212 16.9586C45.4555 17.4655 45.5726 18.0385 45.5726 18.6776C45.5726 20.3305 44.9124 21.6308 43.5919 22.5784C42.2715 23.504 40.6528 23.9668 38.736 23.9668Z" fill="#1E1942"/>
<path d="M58.6263 19.0744L60 22.281C58.5731 23.405 56.9012 23.9669 54.9844 23.9669C53.2593 23.9669 51.9175 23.438 50.9591 22.3802C50.0007 21.3223 49.5215 19.8347 49.5215 17.9174V10.1818H47.1255V7.07441H49.5215V1.95044H53.8662V7.07441H59.0416V10.1818H53.8662V17.5207C53.8662 18.4022 54.0792 19.0303 54.5052 19.405C54.9524 19.7796 55.4742 19.9669 56.0706 19.9669C56.9012 19.9669 57.7531 19.6694 58.6263 19.0744Z" fill="#1E1942"/>
</svg>
