<svg width="79" height="28" viewBox="0 0 79 28" fill="none" xmlns="http://www.w3.org/2000/svg">
<g clip-path="url(#clip0_11954_7316)">
<path fill-rule="evenodd" clip-rule="evenodd" d="M67.8938 2.60578L66.394 8.72379L64.5045 8.74355L65.946 2.62559L63.7838 2.66516L64.2318 0.982239L72.4323 1.002L72.8998 6.26866L75.6657 1.002H77.6915L73.2309 8.72379L71.5168 8.74355L70.4455 1.21979L70.6625 2.58596L67.8938 2.60578Z" fill="#1E1942"/>
<path fill-rule="evenodd" clip-rule="evenodd" d="M1.12556 11.9322L2.06055 7.29921L4.67067 7.3586C5.46273 2.31634 8.74812 0.382554 14.3515 1.14144L13.4945 5.75476L11.3908 5.71506C10.3496 5.75551 9.79287 6.33407 9.63771 7.35849L12.3647 7.34025L11.5076 11.9139L8.72221 11.9536L5.89781 26.5656L1.00867 26.5837L3.7941 11.9123L1.12556 11.9322ZM13.966 7.14028H19.1083L17.141 17.4359C16.7514 19.6139 16.3424 22.0294 18.8941 22.4849C19.6022 22.5884 20.3302 22.4857 21.0191 22.1579C23.0961 21.1687 23.6018 19.0755 24.0217 16.9747L25.9843 7.16019L30.9123 7.14195L27.1335 26.4465L22.6145 26.5059L22.8093 25.5555C19.8037 27.5698 16.1488 27.3002 13.968 25.8365C11.85 24.3186 11.3672 21.6601 11.8982 18.2944L13.966 7.14028ZM28.8051 26.5066L33.6358 26.4885L33.928 24.9244C36.8952 28.1848 43.6803 27.109 46.0437 24.9641C44.7416 23.6078 44.1897 21.9975 43.979 20.2716C42.2972 22.5024 38.9989 22.773 37.2978 21.4398C35.7006 20.2856 35.2865 17.9855 35.7021 15.9922C36.0774 14.1918 37.2405 12.5977 38.9395 11.9047C40.95 11.0848 43.3605 11.6092 44.5438 13.2032C46.5358 16.4968 44.9343 19.2372 46.3274 22.1873C47.1566 23.9432 48.7927 25.4342 50.5327 26.1961C52.6269 27.1132 55.1852 27.2895 57.5531 26.5897C60.334 25.7679 62.6199 23.7338 63.8809 21.0953C65.3808 17.9574 65.4863 14.0837 63.9122 11.1716C61.3064 6.35122 54.2205 5.1738 49.8422 8.58986C50.9443 9.97747 51.4409 11.5648 51.79 13.2428C53.608 10.8009 57.1206 11.0913 58.7634 12.5696C60.1727 13.8314 60.5656 16.7809 59.5085 19.1024C58.6887 20.9024 57.1935 21.8764 55.3036 22.1736C51.976 22.6969 50.1983 19.9744 50.037 17.1433C49.9993 14.3177 49.7755 12.2827 48.7491 10.6376C48.0433 9.506 46.9012 8.47471 45.7319 7.86396C43.2002 6.54148 39.6402 6.44529 37.1811 7.99597L38.4861 1.18493L33.636 1.16669L28.8051 26.5066Z" fill="#1E1942"/>
</g>
<defs>
<clipPath id="clip0_11954_7316">
<rect width="78" height="27" fill="white" transform="translate(0.350037 0.5)"/>
</clipPath>
</defs>
</svg>
