<svg width="87" height="20" viewBox="0 0 87 20" fill="none" xmlns="http://www.w3.org/2000/svg">
<path fill-rule="evenodd" clip-rule="evenodd" d="M24.946 0.387329L16.5331 19.6127H19.4469L25.9315 4.81516L32.4304 19.6127H35.33L26.8885 0.387329H24.946ZM0.650024 0.401585H3.29244V16.9417H13.5764V19.5984H0.650024V0.401585ZM56.8834 16.9988C59.3116 16.9988 61.5255 15.7704 62.811 13.7279L62.9824 13.4565L65.182 14.842L65.0106 15.1134C63.2395 17.9272 60.1972 19.5984 56.8834 19.5984C51.5986 19.5984 47.285 15.2848 47.285 9.99998C47.285 4.71515 51.5843 0.401585 56.8834 0.401585C60.1829 0.401585 63.2109 2.05845 64.9821 4.8437L65.1535 5.11508L62.9538 6.50056L62.7824 6.22918C61.4827 4.21523 59.283 3.00115 56.8834 3.00115C53.0269 3.00115 49.8846 6.14348 49.8846 9.99998C49.8846 13.8565 53.0269 16.9988 56.8834 16.9988ZM32.3733 0.401585H46.8566V3.05828H40.929V19.5984H38.2866V3.05828H32.3733V0.401585ZM80.4937 8.67162H70.2669V0.401585H67.6102V19.5983H70.2669V11.3283H80.4937V19.6126H83.1504V0.401585H80.4937V8.67162ZM85.6216 1.25858C85.5787 1.27286 85.5359 1.28714 85.4502 1.28714V1.27286H85.2074V0.944347H85.4502C85.5359 0.944347 85.5787 0.958628 85.6216 0.972911L85.7073 1.11574L85.6216 1.25858ZM85.0788 1.81562H85.2074V1.41569H85.4073L85.7073 1.81562H85.8644L85.5787 1.40141C85.7073 1.37284 85.8358 1.28714 85.8358 1.11574C85.8358 1.03004 85.8073 0.958628 85.7358 0.901495C85.6787 0.872928 85.6073 0.844363 85.4787 0.844363H85.0788V1.81562ZM84.636 1.32999C84.636 0.887212 84.9788 0.515851 85.4216 0.515851C85.8787 0.515851 86.2215 0.872928 86.2215 1.32999C86.2215 1.77277 85.8787 2.14414 85.4216 2.14414C84.9788 2.14414 84.636 1.77277 84.636 1.32999ZM84.5075 1.32999C84.5075 1.85847 84.9074 2.2584 85.4216 2.2584C85.9501 2.2584 86.35 1.84419 86.35 1.32999C86.35 0.801512 85.9501 0.401585 85.4216 0.401585C84.9074 0.401585 84.5075 0.801512 84.5075 1.32999Z" fill="#1E1942"/>
</svg>
