<svg width="24" height="25" viewBox="0 0 24 25" fill="none" xmlns="http://www.w3.org/2000/svg">
<path d="M18.5853 18.4809V18.4804H18.5886V13.5952C18.5886 11.2053 18.0741 9.3643 15.2802 9.3643C13.9371 9.3643 13.0357 10.1014 12.6678 10.8001H12.6289V9.58742H9.97984V18.4804H12.7382V14.0769C12.7382 12.9175 12.958 11.7964 14.3938 11.7964C15.8086 11.7964 15.8297 13.1195 15.8297 14.1513V18.4809H18.5853Z" fill="#1E1942"/>
<path d="M5.55312 9.58833H8.31485V18.4813H5.55312V9.58833Z" fill="#1E1942"/>
<path d="M6.93288 5.04036C6.04986 5.04036 5.33334 5.75688 5.33334 6.63991C5.33334 7.52293 6.04986 8.25443 6.93288 8.25443C7.8159 8.25443 8.53242 7.52293 8.53242 6.63991C8.53186 5.75688 7.81535 5.04036 6.93288 5.04036V5.04036Z" fill="#1E1942"/>
<circle cx="12" cy="12.5" r="11.5" stroke="#1E1942"/>
</svg>
