<svg width="97" height="24" viewBox="0 0 97 24" fill="none" xmlns="http://www.w3.org/2000/svg">
<path d="M12.7414 23.3436C12.1527 23.4795 11.1565 23.5927 10.5677 23.5927C6.6734 23.5927 4.38661 21.9172 4.38661 18.1134V8.96626H1.2168V6.54362L4.40925 5.63796V1.47192L8.32623 0.339844V5.63796H13.2621V8.96626H8.32623V17.6606C8.32623 19.404 9.20925 20.2644 11.2017 20.2644C11.7904 20.2644 12.3338 20.1964 12.7414 20.1285V23.3436Z" fill="#1E1942"/>
<path d="M27.0501 8.83162C26.6199 8.69577 25.9181 8.62785 25.1256 8.62785C23.0652 8.62785 21.5256 9.12596 20.6426 9.66936V23.209H16.7256V5.63917H19.035L19.669 7.04294C20.9596 6.00143 22.9294 5.20898 25.2162 5.20898C25.9633 5.20898 26.5747 5.32219 27.0728 5.41275L27.0501 8.83162Z" fill="#1E1942"/>
<path d="M33.3224 5.63867V17.6613C33.3224 19.45 34.228 20.2651 36.0846 20.2651C37.9186 20.2651 39.1639 19.767 40.1148 19.2462V5.63867H44.0318V23.1632H41.7224L41.0884 21.7594C39.2997 22.9821 37.3073 23.5934 35.4054 23.5934C30.945 23.5934 29.3828 21.3745 29.3828 18.0236V5.63867H33.3224Z" fill="#1E1942"/>
<path d="M54.4917 5.23047C60.6729 5.23047 61.6464 9.30594 61.6464 14.1286C61.6464 14.7173 61.6012 15.2833 61.5785 15.8493H50.6653C50.7332 18.4758 51.6842 20.1965 55.2615 20.1965C57.4804 20.1965 59.2917 19.8116 60.8314 19.155V22.5059C58.8389 23.3437 56.5521 23.5927 54.6502 23.5927C48.7861 23.5927 46.7031 20.0833 46.7031 14.4003C46.7031 8.78519 48.7861 5.23047 54.4917 5.23047ZM50.6653 13.1324H57.6842C57.6842 10.755 57.5483 8.64934 54.4917 8.64934C51.6163 8.6267 50.8238 10.4833 50.6653 13.1324Z" fill="#1E1942"/>
<path d="M79.6689 14.4015C79.6689 9.01275 81.2085 5.20898 87.4576 5.20898C93.7066 5.20898 95.2462 8.99011 95.2462 14.4015C95.2462 19.7901 93.7066 23.5939 87.4576 23.5939C81.2085 23.6166 79.6689 19.8354 79.6689 14.4015ZM91.284 14.4015C91.284 10.643 90.7859 8.51464 87.4576 8.51464C84.1293 8.51464 83.6311 10.643 83.6311 14.4015C83.6311 18.16 84.1293 20.2883 87.4576 20.2883C90.8085 20.3335 91.284 18.1826 91.284 14.4015Z" fill="#1E1942"/>
<path d="M65.1103 5.61523H62.3027L64.6122 11.7737H68.5744L66.9895 6.97373C66.7178 6.18127 65.9707 5.61523 65.1103 5.61523Z" fill="#1E1942"/>
<path d="M74.6877 5.61523L70.6122 18.3171L69.1405 13.8794H65.4047H65.3594L68.9821 23.4567H72.1972L78.9217 5.61523H74.6877Z" fill="#1E1942"/>
</svg>
