<svg width="24" height="25" viewBox="0 0 24 25" fill="none" xmlns="http://www.w3.org/2000/svg">
<path d="M14.2423 7.16918V7.16667H14.8675L15.0959 7.21447C15.2482 7.2455 15.3864 7.28616 15.5107 7.33648C15.6349 7.38679 15.7551 7.4455 15.8714 7.51258C15.9876 7.57966 16.093 7.64801 16.1876 7.71761C16.2813 7.78638 16.3655 7.85933 16.4401 7.93648C16.5138 8.01447 16.6288 8.03459 16.7851 7.99686C16.9414 7.95912 17.1097 7.9067 17.2901 7.83962C17.4704 7.77254 17.6487 7.69707 17.8251 7.61321C18.0014 7.52935 18.1088 7.4761 18.1473 7.45346C18.185 7.42999 18.205 7.41741 18.2074 7.41572L18.2098 7.41195L18.2218 7.40566L18.2338 7.39937L18.2459 7.39308L18.2579 7.38679L18.2603 7.38302L18.2639 7.3805L18.2675 7.37799L18.2699 7.37421L18.2819 7.37044L18.294 7.36792L18.2916 7.38679L18.2879 7.40566L18.2819 7.42453L18.2759 7.4434L18.2699 7.45597L18.2639 7.46855L18.2579 7.48742C18.2539 7.5 18.2499 7.51677 18.2459 7.53774C18.2419 7.5587 18.2038 7.64255 18.1317 7.78931C18.0595 7.93606 17.9693 8.08491 17.8611 8.23585C17.7529 8.38679 17.656 8.50083 17.5702 8.57799C17.4836 8.65597 17.4263 8.71048 17.3983 8.74151C17.3702 8.77337 17.3361 8.80272 17.2961 8.82956L17.236 8.87107L17.2239 8.87736L17.2119 8.88365L17.2095 8.88742L17.2059 8.88994L17.2023 8.89245L17.1999 8.89623L17.1879 8.90252L17.1758 8.90881L17.1734 8.91258L17.1698 8.91509L17.1662 8.91761L17.1638 8.92138L17.1614 8.92516L17.1578 8.92767L17.1542 8.93019L17.1518 8.93396H17.2119L17.5485 8.85849C17.773 8.80818 17.9874 8.74738 18.1918 8.6761L18.5164 8.56289L18.5525 8.55031L18.5705 8.54403L18.5825 8.53774L18.5945 8.53145L18.6066 8.52516L18.6186 8.51887L18.6426 8.51509L18.6667 8.51258V8.53774L18.6607 8.54025L18.6546 8.54403L18.6523 8.5478L18.6486 8.55031L18.645 8.55283L18.6426 8.5566L18.6402 8.56038L18.6366 8.56289L18.633 8.56541L18.6306 8.56918L18.6282 8.57296L18.6246 8.57547L18.6186 8.58805L18.6126 8.60063L18.609 8.60314C18.6074 8.60566 18.5565 8.67693 18.4563 8.81698C18.3561 8.95786 18.302 9.02913 18.294 9.03082C18.286 9.03333 18.2747 9.04591 18.2603 9.06855C18.2467 9.09203 18.1617 9.18553 18.0054 9.34906C17.8491 9.51258 17.696 9.65806 17.5462 9.78553C17.3955 9.91384 17.3193 10.0715 17.3177 10.2585C17.3153 10.4447 17.3061 10.6551 17.2901 10.8899C17.274 11.1247 17.244 11.3784 17.1999 11.6509C17.1558 11.9235 17.0877 12.2317 16.9955 12.5755C16.9033 12.9193 16.7911 13.2547 16.6589 13.5818C16.5266 13.9088 16.3883 14.2023 16.2441 14.4623C16.0998 14.7222 15.9675 14.9424 15.8473 15.1226C15.7271 15.3029 15.6049 15.4727 15.4806 15.6321C15.3564 15.7914 15.1993 15.9709 15.0093 16.1704C14.8186 16.3692 14.7144 16.4782 14.6967 16.4975C14.6783 16.5159 14.5998 16.5847 14.4611 16.7038C14.3232 16.8237 14.1749 16.9436 14.0162 17.0635C13.8583 17.1826 13.7133 17.282 13.581 17.3616C13.4488 17.4413 13.2893 17.5323 13.1025 17.6346C12.9166 17.7377 12.7154 17.8333 12.499 17.9214C12.2825 18.0094 12.0541 18.0912 11.8136 18.1667C11.5732 18.2421 11.3408 18.3008 11.1163 18.3428C10.8919 18.3847 10.6374 18.4203 10.3529 18.4497L9.92606 18.4937V18.5H9.14458V18.4937L9.04238 18.4874C8.97426 18.4832 8.91815 18.479 8.87406 18.4748C8.82999 18.4707 8.66366 18.4476 8.37512 18.4057C8.08657 18.3637 7.86014 18.3218 7.69582 18.2799C7.53152 18.2379 7.28705 18.1583 6.96243 18.0409C6.63781 17.9235 6.36009 17.8048 6.12925 17.6849C5.89922 17.5658 5.75494 17.4904 5.69643 17.4585C5.63872 17.4275 5.57379 17.3889 5.50166 17.3428L5.39345 17.2736L5.39106 17.2698L5.38744 17.2673L5.38383 17.2648L5.38143 17.261L5.3694 17.2547L5.35738 17.2484L5.35499 17.2447L5.35137 17.2421L5.34776 17.2396L5.34536 17.2358L5.34297 17.2321L5.33935 17.2296H5.33334V17.2044L5.34536 17.2069L5.35738 17.2107L5.41148 17.217C5.44755 17.2212 5.54574 17.2275 5.70604 17.2358C5.86636 17.2442 6.03667 17.2442 6.21701 17.2358C6.39736 17.2275 6.58172 17.2086 6.77007 17.1792C6.95843 17.1499 7.18085 17.0996 7.43733 17.0283C7.69383 16.957 7.92948 16.8723 8.14429 16.7742C8.3583 16.6753 8.51058 16.6015 8.60116 16.5528C8.69092 16.505 8.82798 16.4161 9.01233 16.2862L9.28885 16.0912L9.29126 16.0874L9.29486 16.0849L9.29848 16.0824L9.30087 16.0786L9.30328 16.0748L9.30689 16.0723L9.3105 16.0698L9.3129 16.066L9.32492 16.0623L9.33694 16.0597L9.33935 16.0472L9.34295 16.0346L9.34657 16.0321L9.34897 16.0283L9.25278 16.022C9.18867 16.0178 9.12654 16.0136 9.06643 16.0094C9.00631 16.0052 8.91214 15.9864 8.78389 15.9528C8.65566 15.9193 8.51739 15.869 8.3691 15.8019C8.22083 15.7348 8.07655 15.6551 7.93628 15.5629C7.79602 15.4707 7.69462 15.3939 7.6321 15.3327C7.57039 15.2723 7.49023 15.1868 7.39165 15.0761C7.29386 14.9646 7.2089 14.8501 7.13676 14.7327C7.06463 14.6153 6.9957 14.4799 6.92998 14.3264L6.83018 14.0975L6.82417 14.0786L6.81816 14.0597L6.81455 14.0472L6.81215 14.0346L6.83018 14.0371L6.84821 14.0409L6.98047 14.0597C7.06864 14.0723 7.2069 14.0765 7.39525 14.0723C7.58362 14.0681 7.71386 14.0597 7.786 14.0472C7.85813 14.0346 7.90222 14.0262 7.91825 14.022L7.94229 14.0157L7.97235 14.0094L8.00241 14.0031L8.00481 13.9994L8.00842 13.9969L8.01204 13.9943L8.01443 13.9906L7.99038 13.9843L7.96634 13.978L7.94229 13.9717L7.91825 13.9654L7.8942 13.9591C7.87818 13.9549 7.85013 13.9465 7.81004 13.934C7.76997 13.9214 7.66176 13.8753 7.48542 13.7956C7.3091 13.7159 7.16883 13.6384 7.06463 13.5629C6.96017 13.4872 6.86056 13.4044 6.76646 13.3151C6.67268 13.2245 6.56969 13.108 6.45747 12.9654C6.34526 12.8229 6.24508 12.6572 6.1569 12.4686C6.06874 12.2799 6.00261 12.0996 5.95852 11.9277C5.91461 11.7568 5.88564 11.582 5.87197 11.4057L5.85032 11.1415L5.86234 11.144L5.87436 11.1478L5.88639 11.1541L5.89841 11.1604L5.91043 11.1667L5.92246 11.173L6.10881 11.261C6.23305 11.3197 6.38734 11.37 6.57169 11.4119C6.75605 11.4539 6.86625 11.4769 6.90232 11.4811L6.95642 11.4874H7.06463L7.06223 11.4836L7.05861 11.4811L7.05501 11.4786L7.0526 11.4748L7.05021 11.4711L7.04659 11.4686L7.04298 11.466L7.04058 11.4623L7.02856 11.456L7.01653 11.4497L7.01414 11.4459L7.01052 11.4434L7.00692 11.4409L7.00451 11.4371L6.99249 11.4308L6.98047 11.4245L6.97807 11.4208C6.97567 11.4191 6.9412 11.3922 6.87466 11.3403C6.80894 11.2874 6.74001 11.2191 6.66787 11.1352C6.59573 11.0514 6.5236 10.9633 6.45146 10.8711C6.37919 10.7786 6.31482 10.6797 6.25909 10.5755C6.203 10.4707 6.14368 10.3373 6.08116 10.1755C6.01944 10.0145 5.97255 9.8522 5.94049 9.68868C5.90844 9.52516 5.8904 9.36374 5.88639 9.2044C5.88238 9.04507 5.88639 8.90881 5.89841 8.7956C5.91043 8.68239 5.93448 8.5545 5.97055 8.41195C6.00662 8.2694 6.05872 8.11845 6.12684 7.95912L6.22904 7.72013L6.23505 7.70126L6.24106 7.68239L6.24468 7.67987L6.24707 7.6761L6.24948 7.67233L6.25308 7.66981L6.2567 7.67233L6.25909 7.6761L6.2615 7.67987L6.26511 7.68239L6.26873 7.68491L6.27112 7.68868L6.27352 7.69245L6.27713 7.69497L6.28314 7.70755L6.28915 7.72013L6.29277 7.72264L6.29516 7.72642L6.45747 7.91509C6.56568 8.04088 6.69393 8.18135 6.8422 8.33648C6.99049 8.49161 7.07264 8.57211 7.08867 8.57799C7.10471 8.58469 7.12474 8.60397 7.14879 8.63585C7.17283 8.66688 7.25299 8.74109 7.38924 8.85849C7.52551 8.97589 7.70384 9.11216 7.92426 9.2673C8.14469 9.42243 8.38915 9.57547 8.65765 9.72642C8.92617 9.87736 9.21472 10.0136 9.5233 10.1352C9.83189 10.2568 10.0483 10.3365 10.1725 10.3742C10.2968 10.4119 10.5092 10.4602 10.8097 10.5189C11.1103 10.5776 11.3368 10.6153 11.489 10.6321C11.6413 10.6488 11.7455 10.6585 11.8016 10.661L11.8858 10.6635L11.8834 10.6447L11.8798 10.6258L11.8557 10.4686C11.8397 10.3637 11.8317 10.217 11.8317 10.0283C11.8317 9.83962 11.8457 9.66562 11.8738 9.50629C11.9018 9.34696 11.9439 9.18553 12 9.02201C12.0561 8.85849 12.111 8.72725 12.1647 8.6283C12.2192 8.53019 12.2906 8.41824 12.3787 8.29245C12.4669 8.16667 12.5811 8.03669 12.7214 7.90252C12.8616 7.76834 13.0219 7.64884 13.2023 7.54403C13.3826 7.43921 13.549 7.35953 13.7012 7.30503C13.8535 7.25053 13.9818 7.21488 14.086 7.19811C14.1902 7.18135 14.2423 7.1717 14.2423 7.16918Z" fill="#1E1942"/>
<circle cx="12" cy="12.5" r="11.5" stroke="#1E1942"/>
</svg>
